<!DOCTYPE svg PUBLIC "-//W3C//DTD SVG 1.1//EN" "http://www.w3.org/Graphics/SVG/1.1/DTD/svg11.dtd" [
	<!ENTITY ns_flows "http://ns.adobe.com/Flows/1.0/">
]><svg xmlns="http://www.w3.org/2000/svg" width="77" height="100" viewBox="133.5 42.5 77 100" overflow="visible" enable-background="new 133.5 42.5 77 100"><path fill="#fff" d="M204.17 125.311c-3.057-5.764-2.406-4.225-2.957-7.072-.502-2.568-.25-5.54-.389-8.615-.208-4.648-.643-9.535-.643-13.632 0-3.6-1.504-4.745-2.315-7.072-1.181-3.388-2.128-6.486-3.729-8.102-1.94-1.961-4.068-.716-4.068-.716-1.402-3.629-1.77-4.553-3.246-6.345-1.418-1.725-3.559-1.492-3.559-1.492s-1.049-5.209-3.445-7.838c-1.277-1.403-3.913-1.387-4.905-.907-.717.349-1.678 1.467-2.684 2.202-1.934 1.413-4.267 4.057-4.271 4.062 0 0-.396-1.207-1.499-3.363-.3-.586-.691-1.235-1.119-1.917 2.238-2.354 3.62-5.529 3.62-9.033 0-7.251-5.878-13.128-13.126-13.128-7.251 0-13.126 5.877-13.126 13.128 0 7.079 5.607 12.834 12.622 13.101.622 1.845 1.378 3.858 2.039 5.556 1.232 3.165 2.269 5.748 2.859 9.074.432 2.438.177 5.228.072 7.558-.089 1.978-.235 3.884-.464 5.45-.313 2.139-.991 3.641-1.353 4.601-.271.717-.225 1.321-.225 1.321s-.498-.008-1.09.186c-.591.195-.965.691-.965.691l-.983-.66s.185-.357 0-.996c-.201-.697-.552-1.676-1.048-2.987-.202-.534-.395-1.601-.553-2.104-.417-1.332-.967-1.826-.967-1.826s.57-1.83-.194-3.812c-.801-2.076-2.561-4.868-4.518-6.72-1.612-1.526-2.926-1.925-4.32-1.714-1.735.263-2.398 2.273-2.075 4.39.195 1.28.765 3.001.9 3.886.321 2.112-.844 4.61-.801 6.066.056 1.887 1.039 2.934 1.94 6.919.321 1.425 1.251 2.981 1.677 4.613.631 2.409 1.018 4.709 1.298 5.29 1.486 3.076 7.383 6.939 12.86 11.959 3.085 2.828 6.736 2.842 9.258 5.4 1.545 1.566 2.394 4.187 3.986 6.559 6.601 9.83 25.938.227 31.021-7.061 1.206-1.731.96-4.003.485-4.9zm-59.814-69.84c0-6.34 5.137-11.48 11.478-11.48s11.478 5.14 11.478 11.48c0 2.915-1.095 5.568-2.886 7.593-.511-.8-1.031-1.625-1.503-2.451 1.051-1.445 1.677-3.218 1.677-5.142 0-4.843-3.925-8.767-8.767-8.768-4.842 0-8.766 3.925-8.766 8.768 0 4.198 2.953 7.703 6.895 8.56.227.805.463 1.623.708 2.463l.123.403c-5.852-.526-10.437-5.439-10.437-11.426zm17.604 3.312c-1.973-4.005-3.405-8.035-7.116-6.929-1.109.331-2.234 1.444-2.411 3.273-.174 1.779.277 4.164.976 6.864-2.649-.986-4.539-3.529-4.539-6.52 0-3.847 3.118-6.965 6.964-6.965 3.846 0 6.964 3.118 6.963 6.965 0 1.199-.303 2.327-.837 3.312z"/></svg>