<!DOCTYPE svg PUBLIC "-//W3C//DTD SVG 1.1//EN" "http://www.w3.org/Graphics/SVG/1.1/DTD/svg11.dtd" [
	<!ENTITY ns_flows "http://ns.adobe.com/Flows/1.0/">
]><svg xmlns="http://www.w3.org/2000/svg" width="76" height="100" viewBox="752.5 42.5 76 100" overflow="visible" enable-background="new 752.5 42.5 76 100"><path fill="#fff" d="M814.92 96.532c-.604-2.011-1.787-2.703-2.079-2.849l.06-.319.082-.591c.097-.448.211-1.039.309-1.698l.012-.055-.005.011c.236-1.62.367-3.649-.131-5.07-.935-2.664-3.688-2.854-3.804-2.86.117-.625.127-1.075.105-1.354.055-1.04.075-2.593-.117-4.368-.182-1.663-2.414-2.945-4.77-3.814-4.195-1.054-7.629 1.907-7.629 1.907s4.086-5.976 5.771-8.997l.09-.079-.049.068 5.904-5.149 8.208-7.123-14.203-12.1-.952 6.676c-.041.016-14.08-.304-24.618 2.192-12.525 2.967-22.964 6.946-22.908 7.232.036.186 12.081-2.566 26.459-2.323 6.583.111 12.728 1.244 16.79 2.196l-.071.081s.169.155.39-.006l.021.005c-.824 1.039-1.605 2.072-2.26 3-2.217 3.145-10.293 13.529-12.083 15.241-2.513 2.407-3.028 4.028-5.183 8.042-1.781 3.316-3.701 5.793-4.877 7.346-.632.833-1.164 1.88-1.164 1.88s-.564-.783-1.018-1.016c-.527-.271-1.907 0-1.907 0 .154-.752.755-.322 1.232-1.938.461-1.567-.384-2.172-.278-2.83-.012.123 1.613-.355 2.815-2.352.927-1.54 2.154-2.973 2.404-4.406.231-1.333.227-2.641.101-3.287-.439-2.247-1.447-3.142-2.699-3.085-2.193.1-4.116 3.89-4.42 3.991-.303.101-1.081.771-1.081.771s-2.326.369-5.026 2.482c-.846.662-1.626 4.231-2.504 7.47-1.055 3.89-2.961 7.422-2.602 9.935.227 1.586 2.087 9.106 4.481 14.494 2.799 6.299 6.148 10.575 7.083 12.357 1.734 3.305 2.141 7.562 3.355 10.268 3.614 8.047 31.992 3.199 32.425 1.907.436-1.295.984-1.207.503-1.878-.349-.486.138-1.029.384-2.682.098-.631-.255-1.892-.095-2.685.435-2.157 6.803-14.296 9.638-20.884.938-2.184.881-3.895.901-4.247.077-1.42.039-.155-.238-2.17-.137-1.004-.061-5.035-.752-7.337zm-7.884-47.464c2.896.105 5.155 2.537 5.052 5.432-.049 1.354-.619 2.556-1.494 3.456-.197.159-.662.532-1.154.898-.461.263-.965.456-1.498.569 1.023-1.367 1.629-2.01 2.242-3.671.445-1.225.573-2.01.197-2.729-1.348-2.577-3.21-3.496-6.355-1.646-.469.277-1.324 1.098-2.344 2.197l.024-.188.144-.601c.675-2.219 2.757-3.805 5.186-3.717zm-5.216 3.796l-.086.413-.016.018.102-.431z"/></svg>