<!DOCTYPE svg PUBLIC "-//W3C//DTD SVG 1.1//EN" "http://www.w3.org/Graphics/SVG/1.1/DTD/svg11.dtd" [
	<!ENTITY ns_flows "http://ns.adobe.com/Flows/1.0/">
]><svg xmlns="http://www.w3.org/2000/svg" width="69" height="100" viewBox="320.5 41.5 69 100" overflow="visible" enable-background="new 320.5 41.5 69 100"><path fill="#fff" d="M343.294 67.667c.173.247.367.513.576.793-.441 2.159-2.351 3.784-4.641 3.784-.814 0-1.569-.225-2.239-.587-.587-2.22-.853-5.205.438-6.602 1.586-1.718 3.202-1.194 5.866 2.612zm39.254 59.337c-2.799-5.282-2.204-3.871-2.709-6.48-.459-2.354-.228-5.076-.354-7.894-.191-4.259-.59-8.735-.59-12.489 0-3.298-1.375-4.348-2.121-6.48-1.082-3.103-1.948-5.94-3.416-7.42-1.779-1.796-3.729-.656-3.729-.656-1.281-3.324-.799-3.055-2.148-4.698-1.301-1.58-3.446-.333-3.446-.333s-.542-1.658-1.233-2.607c-.812-1.116-1.361-1.49-1.949-2.182-1.123-1.326-4.195-.918-5.104-.478-.656.32-1.537 1.344-2.459 2.017-1.773 1.295-2.307 2.932-2.307 2.932s-1.694-3.726-2.705-5.702c-.641-1.253-2.334-3.364-3.723-5.173l-5.494 6.421-.671-.784c.312.463.682.871 1.14 1.133 0 0-.188 1.242.249 2.459.437 1.216.825 3.209 1.271 4.284.626 1.507.765 1.396.957 2.03.212.692-.301 1.043.208 2.978.578 2.195.243 5.336.146 7.471-.081 1.812-.215 3.559-.425 4.993-.286 1.959-.908 3.335-1.239 4.215-.249.657-.206 1.21-.206 1.21s-.457-.008-.999.172c-.543.178-.886.635-.886.635l-.904-.611s.17-.328 0-.912c-.183-.639-.049-.335-.505-1.536-.185-.491-.623-1.76-.768-2.222-.382-1.221-1.158-1.621-1.158-1.621s.049-2.389-.387-4.286c-.424-1.853-1.358-3.022-3.15-4.718-1.478-1.399-2.682-1.763-3.959-1.57-1.59.24-2.356 2.089-2.12 4.036.136 1.125.397 2.071.594 2.864.857 3.433-.442 5.623-.402 6.959.051 1.729.717 2.188 1.195 4.015.339 1.294 1.147 2.733 1.537 4.228.578 2.207.932 4.315 1.19 4.849 1.361 2.817 6.764 6.356 11.783 10.957 2.825 2.592 6.172 2.604 8.48 4.946 1.416 1.437 2.193 3.836 3.652 6.011 6.047 9.007 23.767.208 28.42-6.47 1.105-1.59.878-3.67.444-4.493zm-45.558-55.346c-1.479-.801-2.498-2.349-2.498-4.15-.001-2.617 2.12-4.738 4.737-4.738 2.616 0 4.737 2.121 4.737 4.738 0 .326-.033.645-.096.953l.682.898 4.93-5.764h-5.396l-5.03-21.596-4.501 21.597h-5.926l9.756 11.4c-.411-.61-.717-1.32-.959-1.946-.154-.399-.301-.882-.436-1.392z"/></svg>