<!DOCTYPE svg PUBLIC "-//W3C//DTD SVG 1.1//EN" "http://www.w3.org/Graphics/SVG/1.1/DTD/svg11.dtd" [
	<!ENTITY ns_flows "http://ns.adobe.com/Flows/1.0/">
]><svg xmlns="http://www.w3.org/2000/svg" width="76" height="100" viewBox="585.5 43.5 76 100" overflow="visible" enable-background="new 585.5 43.5 76 100"><path fill="#fff" d="M655.682 125.926c-3.164-5.967-2.492-4.373-3.062-7.32-.517-2.657-.257-5.732-.401-8.918-.215-4.811-.662-9.869-.662-14.109 0-3.727-1.557-4.912-2.397-7.321-1.222-3.506-2.202-6.713-3.859-8.386-2.01-2.029-4.212-.741-4.212-.741-1.451-3.755-1.833-4.711-3.359-6.567-1.469-1.785-3.684-1.544-3.684-1.544s-1.086-5.391-3.566-8.113c-1.324-1.452-4.05-1.436-5.078-.938-.742.361-1.737 1.518-2.779 2.278-2.002 1.464-4.419 4.205-4.419 4.205s-.41-1.249-1.551-3.481c-.85-1.663-2.376-3.783-3.597-5.899 1.138-1.517 1.821-3.395 1.821-5.436 0-5.014-4.063-9.076-9.074-9.076-5.012 0-9.074 4.063-9.074 9.076 0 4.289 2.978 7.873 6.976 8.821.238.846.486 1.707.744 2.589.689 2.358 1.84 5.449 2.794 7.902 1.276 3.276 2.349 5.951 2.959 9.393.446 2.524.183 5.412.074 7.823-.092 2.049-.242 4.021-.48 5.644-.324 2.213-1.025 3.768-1.4 4.761-.281.743-.233 1.368-.233 1.368s-.515-.01-1.128.193c-.613.198-1 .715-1 .715l-1.021-.687s.191-.37 0-1.028c-.208-.723-.57-1.736-1.084-3.094-.209-.555-.409-1.656-.573-2.179-.431-1.38-1-1.89-1-1.89s.59-1.894-.201-3.947c-.828-2.149-2.651-5.039-4.676-6.956-1.67-1.58-3.03-1.993-4.472-1.774-1.796.271-2.482 2.353-2.147 4.543.202 1.325.792 3.107.931 4.023.333 2.187-.873 4.771-.828 6.279.057 1.951 1.074 3.035 2.007 7.16.332 1.477 1.295 3.088 1.736 4.775.653 2.496 1.053 4.876 1.344 5.479 1.538 3.186 7.643 7.182 13.312 12.377 3.193 2.931 6.973 2.942 9.583 5.59 1.599 1.623 2.478 4.336 4.126 6.789 6.832 10.177 26.849.234 32.109-7.309 1.247-1.788.991-4.139.501-5.07zm-55.508-72.292c0-3.106 2.518-5.626 5.625-5.626s5.625 2.52 5.625 5.626c0 .595-.094 1.167-.265 1.705-1.671-3.482-3.229-6.434-6.533-5.448-1.148.341-2.312 1.494-2.497 3.387-.133 1.366.09 3.077.508 5.007-1.487-1.012-2.463-2.717-2.463-4.651z"/></svg>