<!DOCTYPE svg PUBLIC "-//W3C//DTD SVG 1.1//EN" "http://www.w3.org/Graphics/SVG/1.1/DTD/svg11.dtd" [
	<!ENTITY ns_flows "http://ns.adobe.com/Flows/1.0/">
]><svg xmlns="http://www.w3.org/2000/svg" width="76" height="100" viewBox="402.5 42.5 76 100" overflow="visible" enable-background="new 402.5 42.5 76 100"><path fill="#fff" d="M429.872 53.675c-.346 2.438-2.421 4.319-4.954 4.319-1.14 0-2.179-.395-3.021-1.034-.293-1.547-.438-2.932-.327-4.069.181-1.869 1.331-3.007 2.464-3.345 2.858-.851 4.392 1.277 5.838 4.129zm44.577 70.956c-3.123-5.893-2.461-4.317-3.023-7.229-.51-2.625-.252-5.661-.396-8.808-.211-4.75-.654-9.744-.654-13.933 0-3.68-1.536-4.85-2.367-7.229-1.207-3.462-2.174-6.63-3.812-8.281-1.982-2.003-4.157-.732-4.157-.732-1.435-3.708-1.81-4.652-3.315-6.485-1.451-1.763-3.64-1.525-3.64-1.525s-1.071-5.323-3.521-8.011c-1.308-1.434-4-1.418-5.015-.927-.731.356-1.716 1.499-2.743 2.25-1.979 1.445-4.365 4.152-4.365 4.152s-.406-1.234-1.532-3.438c-.957-1.872-2.785-4.332-4.039-6.703-.493-.933-.943-1.889-1.385-2.81h-.691l-1.96 20.57c.716 1.959 1.312 3.865 1.707 6.095.441 2.492.18 5.343.073 7.724-.09 2.023-.24 3.971-.474 5.572-.32 2.185-1.012 3.721-1.382 4.701-.277.733-.23 1.35-.23 1.35s-.509-.008-1.114.191c-.605.196-.987.707-.987.707l-1.01-.674s.189-.365 0-1.02c-.205-.713-.563-1.713-1.07-3.053-.207-.547-.404-1.635-.566-2.15-.426-1.361-.988-1.866-.988-1.866s.583-1.87-.198-3.897c-.819-2.122-2.618-4.976-4.617-6.869-1.649-1.56-2.993-1.968-4.417-1.752-1.774.268-2.451 2.323-2.12 4.486.199 1.309.781 3.068.919 3.973.33 2.16-.862 4.71-.818 6.203.058 1.926 1.062 2.996 1.983 7.069.328 1.456 1.278 3.05 1.714 4.718.644 2.463 1.04 4.811 1.328 5.405 1.518 3.146 7.546 7.093 13.144 12.226 3.153 2.892 6.885 2.903 9.462 5.52 1.579 1.602 2.448 4.279 4.075 6.704 6.745 10.048 26.513.231 31.705-7.218 1.233-1.768.981-4.09.496-5.006zm-50.591-60.121c-.798-2.736-1.539-5.316-1.961-7.55-1.209-.918-2.001-2.356-2.001-3.991 0-2.774 2.249-5.024 5.023-5.024 2.775 0 5.025 2.25 5.025 5.024 0 .242-.038.474-.071.706.204.403.407.822.611 1.248h5.593l-11.06-12.924-11.06 12.924h5.723l6.619 36.66 1.533-16.09c-.375-1.027-.783-2.067-1.216-3.18-.941-2.422-2.079-5.474-2.758-7.803z"/></svg>