<!DOCTYPE svg PUBLIC "-//W3C//DTD SVG 1.1//EN" "http://www.w3.org/Graphics/SVG/1.1/DTD/svg11.dtd" [
	<!ENTITY ns_flows "http://ns.adobe.com/Flows/1.0/">
]><svg xmlns="http://www.w3.org/2000/svg" width="76" height="100" viewBox="488.5 42.5 76 100" overflow="visible" enable-background="new 488.5 42.5 76 100"><path fill="#fff" d="M559.314 116.314c.494-6.947-4.596-25.881-7.305-30.031-1.381-2.114-2.217-7.293-7-8.602-1.884-.515-3.258-.06-3.605.076l-.065-.038c-.006-.565-1.567-4.499-5.282-6.336-2.295-1.134-5.086-.101-5.183-.065-.069-.256-.745-1.777-4.61-4.22-1.755-1.109-5.125-3.025-7.208-1.711-.216.136-.412.28-.6.427l-.005-.003-.012.016c-1.175.925-1.826 2.045-2.197 3.102l-.007.012c-.526.953-.584 2.733-.588 3.386l-.06.124c-.081.039-1.753-2.634-3.603-6.273-1.052-2.07-3.709-4.201-4.883-6.464l-.324-.657 1.422-.36c3.863-.937 11.182-2.404 19.035-2.371 14.371.063 26.236 3.135 26.283 2.946.072-.291-10.117-4.582-22.449-7.885-10.374-2.776-24.41-2.753-24.449-2.771l-.562-6.841-14.89 12.055 7.409 7.102.09.176-.02-.108.048.046c.645 2.738 1.652 5.721 2.865 8.417 2.974 6.612 5.16 12.483 6.109 15.175 2.134 6.052 2.229 23.237 2.229 23.217l-1.253.408s-1-2.475-3.066-5.092c.107-8.935-6.52-11.875-7.776-10.197-1.085 1.449-.542 4.199-1.123 6.742-.693 3.031-1.961 5.127-1.946 6.736.013 1.541 1.716 3.984 3.382 7.205 1.532 2.959 2.96 6.684 4.561 8.481 1.722 1.933 8.089 5.353 13.648 7.72 5.231 2.227 7.013 2.061 9.722 3.464 2.709 1.401 3.041 6.449 3.767 7.007 5.193 4.004 27.082 1.107 31.139-10.752 2.036-5.958-1.89-9.716-1.638-13.263zm-58.25-67.605c2.898-.044 5.194 2.319 5.128 5.279-.016.744-.181 1.455-.464 2.103l-.001.002-.14.256c-1.6-3.871-2.776-6.854-6.567-4.289-1.182.8-1.33 3.401-.796 6.667-.333-.196-.644-.421-.923-.687l-.252-.256c-.858-.945-1.379-2.216-1.347-3.634.065-2.961 2.466-5.397 5.362-5.441z"/></svg>