<!DOCTYPE svg PUBLIC "-//W3C//DTD SVG 1.1//EN" "http://www.w3.org/Graphics/SVG/1.1/DTD/svg11.dtd" [
	<!ENTITY ns_flows "http://ns.adobe.com/Flows/1.0/">
]><svg xmlns="http://www.w3.org/2000/svg" width="76" height="100" viewBox="227.5 42.5 76 100" overflow="visible" enable-background="new 227.5 42.5 76 100"><path fill="#fff" d="M294.389 102.821c.282-3.254-.498-6.01-2.319-8.196-2.689-3.208-6.812-4.209-8.571-4.501-1.12-2.811-2.832-4.662-5.09-5.507-.884-.331-1.847-.5-2.856-.5-1.696 0-3.226.466-4.253.88-1.357-2.462-3.168-3.989-5.386-4.548-.611-.154-1.256-.233-1.917-.233-2.113 0-4.048.796-5.363 1.51-.456-3.045-1.055-10.284-1.497-15.609l-.004-.06c-.981-11.919-1.293-15.11-1.821-16.037-.672-2.311-3.559-5.696-6.436-5.493-1.901.116-4.298 1.679-4.908 8.476 0 23.93-.673 41.62-.82 45.22-2.125.966-4.063 3.157-4.277 3.405-6.834 7.549-3.595 13.096-3.455 13.322 5.223 9.145 16.014 27.149 16.113 27.316l.211.347 35.888.065 1.784-5.688c7.162-13.682 5.221-32.146 4.977-34.169z"/></svg>