<svg xmlns="http://www.w3.org/2000/svg" width="45" height="37" viewBox="0 0 45 37"><path fill="#604F45" stroke="#604F45" d="M11.765 28.684c-1.155 0-2.091-.937-2.091-2.09v-9.474h2.091c1.453 0 2.819-.564 3.846-1.591 1.027-1.028 1.592-2.395 1.592-3.846 0-1.452-.564-2.817-1.593-3.847-1.025-1.026-2.392-1.591-3.845-1.591-1.454 0-2.819.565-3.846 1.592-1.027 1.029-1.594 2.394-1.594 3.846 0 1.154-.935 2.09-2.089 2.09-1.156 0-2.091-.936-2.091-2.09 0-2.568 1.001-4.982 2.816-6.801 1.816-1.817 4.233-2.818 6.803-2.818s4.986 1.001 6.802 2.818c1.816 1.819 2.816 4.233 2.816 6.801s-1 4.983-2.816 6.801c-1.313 1.313-2.94 2.201-4.712 2.592v5.518c0 1.153-.935 2.09-2.089 2.09"/><path fill="#80BA27" d="M13.914 33.209c0-1.187-.963-2.148-2.148-2.148-1.188 0-2.152.962-2.152 2.148 0 1.188.965 2.149 2.152 2.149 1.185 0 2.148-.962 2.148-2.149"/><circle fill="#604F45" stroke="#604F45" cx="11.764" cy="33.209" r="2.15"/><path fill="#80BA27" stroke="#80BA27" d="M32.817 28.684c-1.155 0-2.091-.937-2.091-2.09v-9.474h2.091c1.453 0 2.819-.563 3.846-1.591 1.027-1.028 1.592-2.395 1.592-3.846 0-1.452-.564-2.817-1.593-3.847-1.025-1.026-2.392-1.591-3.845-1.591-1.454 0-2.819.565-3.846 1.592-1.027 1.029-1.594 2.394-1.594 3.846 0 1.154-.935 2.09-2.089 2.09-1.156 0-2.091-.936-2.091-2.09 0-2.568 1.001-4.982 2.816-6.801 1.816-1.817 4.233-2.818 6.803-2.818s4.986 1.001 6.802 2.818c1.816 1.819 2.816 4.233 2.816 6.801s-1 4.983-2.816 6.801c-1.313 1.313-2.94 2.201-4.712 2.592v5.518c.001 1.153-.934 2.09-2.089 2.09"/><path fill="#9c3" stroke="#80BA27" d="M34.967 33.209c0-1.187-.963-2.148-2.148-2.148-1.188 0-2.152.962-2.152 2.148 0 1.188.965 2.149 2.152 2.149 1.185 0 2.148-.962 2.148-2.149"/><circle fill="#80BA27" stroke="#80BA27" cx="32.816" cy="33.209" r="2.15"/></svg>