<svg xmlns="http://www.w3.org/2000/svg" xmlns:xlink="http://www.w3.org/1999/xlink" width="40" height="30" viewBox="0 0 40 30"><g fill="#605046"><path d="M20.789 14.82c.452-.454.596-1.103.379-1.711-.224-.616-.769-1.022-1.425-1.061h-2.187l-.051.051v5.57l.051.05h2.254c.717 0 1.322-.45 1.539-1.148.206-.664-.012-1.344-.56-1.751m-1.096-.308h-1.447v-1.716h1.446c.561.009.817.449.819.854.003.408-.253.85-.818.862m-1.446.741h1.611c.557 0 .814.44.817.851 0 .414-.258.86-.825.865h-1.602v-1.716zM24.208 13.783h-.73c-.167 0-.341.038-.51.111l-.032.047v.475l.05.052h1.196c.253 0 .45.197.456.456v.491c-.253-.189-.565-.297-.875-.297h-.285c-.651 0-1.182.531-1.182 1.182v.245c0 .647.53 1.174 1.182 1.174h.285c.323 0 .616-.098.875-.289v.239l.053.05h.646l.052-.05v-2.704c-.001-.64-.543-1.182-1.181-1.182m-.026 3.252h-.686c-.255 0-.45-.197-.459-.457v-.316c.009-.262.204-.459.459-.459h.686c.259 0 .45.193.456.457v.318c0 .262-.196.457-.456.457M29.115 14.425v-.582l-.052-.051h-2.661l-.052.051v.582l.052.051h1.768l-1.812 2.581-.008.03v.582l.052.05h2.661l.052-.05v-.582l-.052-.052h-1.776l1.818-2.581.01-.029"/></g><g><defs><path id="a" d="M-3.833-1.455h47.708v32.799h-47.708z"/></defs><clipPath id="b"><use xlink:href="#a" overflow="visible"/></clipPath><path clip-path="url(#b)" fill="#605046" d="M14.615 14.891c0-3.875-3.141-7.017-7.017-7.017-3.874 0-7.016 3.141-7.016 7.017 0 3.875 3.142 7.016 7.016 7.016 3.876 0 7.017-3.141 7.017-7.016"/><path clip-path="url(#b)" fill="#fff" d="M5.265 11.664c0-.261-.028-.468-.084-.622-.056-.154-.135-.268-.237-.343s-.231-.123-.384-.146c-.154-.024-.446-.027-.632-.027l.123-.288h3.437c.27 0 .595.011.978.035.381.023.749.105 1.103.245s.657.362.908.664c.251.303.377.733.377 1.292 0 .354-.056.652-.167.894-.112.242-.25.443-.413.601-.164.157-.34.284-.531.377-.191.093-.37.168-.537.225v.027c.242.038.488.107.74.209.251.102.479.247.684.433.205.186.373.426.504.72.13.295.195.653.195 1.081 0 .579-.123 1.033-.37 1.364-.247.33-.551.579-.914.746-.363.169-.757.274-1.182.321-.423.048-.812.069-1.167.069h-2.43v-7.877zm1.243 2.696h.642c.205 0 .445-.009.72-.029.274-.018.535-.083.782-.195.246-.112.457-.289.628-.531.173-.242.259-.585.259-1.034 0-.354-.054-.644-.161-.873-.107-.228-.254-.409-.44-.544-.186-.135-.405-.23-.656-.287-.251-.056-.517-.084-.796-.084-.224 0-.399.013-.524.035-.125.024-.223.077-.294.161-.069.084-.114.203-.132.356-.019.154-.028.361-.028.622v2.403zm0 3.465c0 .261.007.469.021.622.014.152.059.271.133.355.075.083.193.137.357.161.163.022.389.035.677.035.29 0 .571-.034.846-.099.274-.064.522-.173.74-.32.219-.15.396-.352.531-.602.135-.251.203-.563.203-.938 0-.5-.093-.896-.28-1.18-.186-.283-.421-.498-.705-.642-.285-.144-.594-.233-.93-.267-.334-.033-.652-.047-.95-.047h-.643v2.922z"/><path clip-path="url(#b)" fill="#83B719" d="M16.441 14.433h-3.147l-.05.049v.816l.05.051h3.147l.05-.051v-.816l-.05-.049"/></g></svg>