<svg xmlns="http://www.w3.org/2000/svg" xmlns:xlink="http://www.w3.org/1999/xlink" width="40" height="30" viewBox="0 0 40 30"><g fill="#605046"><path d="M20.82 14.829c.457-.456.603-1.109.382-1.72-.225-.619-.77-1.028-1.431-1.067h-2.198l-.052.051v5.6l.052.051h2.266c.722 0 1.329-.453 1.547-1.155.206-.666-.015-1.351-.566-1.76m-1.099-.309h-1.455v-1.724h1.454c.565.008.823.45.823.858.004.409-.255.854-.822.866m-1.455.746h1.62c.562 0 .818.442.82.855.001.416-.258.866-.829.87h-1.611v-1.725zM24.26 13.788h-.735c-.645 0-1.179.533-1.187 1.188v1.583c.008.655.53 1.177 1.187 1.186h.735c.168 0 .34-.037.506-.112l.029-.046v-.477l-.051-.053h-1.45c-.114 0-.195-.085-.201-.203v-.45h1.167c.642 0 1.186-.546 1.186-1.188v-.239c-.001-.645-.545-1.189-1.186-1.189m.433 1.147v.321c0 .253-.207.459-.459.459h-1.142v-.78c0-.253.206-.459.457-.459h.685c.252 0 .459.205.459.459M29.469 13.788h-.649l-.052.052v2.757c-.008.259-.208.46-.458.46h-.692c-.244 0-.45-.21-.45-.459v-2.758l-.052-.052h-.65l-.054.052v2.717c0 .646.532 1.179 1.182 1.188h.296c.313 0 .622-.104.879-.291v.24l.052.051h.649l.054-.051v-3.854l-.055-.052M33.269 14.432v-.584l-.051-.052h-2.679l-.051.052v.584l.051.052h1.781l-1.822 2.594-.01.031v.584l.051.051h2.679l.051-.051v-.584l-.051-.053h-1.786l1.827-2.595.01-.029"/></g><g><defs><path id="a" d="M-3.833-1.455h47.708v32.799h-47.708z"/></defs><clipPath id="b"><use xlink:href="#a" overflow="visible"/></clipPath><path clip-path="url(#b)" fill="#605046" d="M14.615 14.891c0-3.875-3.141-7.017-7.017-7.017-3.874 0-7.016 3.141-7.016 7.017 0 3.875 3.142 7.016 7.016 7.016 3.876 0 7.017-3.141 7.017-7.016"/><path clip-path="url(#b)" fill="#fff" d="M5.265 11.664c0-.261-.028-.468-.084-.622-.056-.154-.135-.268-.237-.343s-.231-.123-.384-.146c-.154-.024-.446-.027-.632-.027l.123-.288h3.437c.27 0 .595.011.978.035.381.023.749.105 1.103.245s.657.362.908.664c.251.303.377.733.377 1.292 0 .354-.056.652-.167.894-.112.242-.25.443-.413.601-.164.157-.34.284-.531.377-.191.093-.37.168-.537.225v.027c.242.038.488.107.74.209.251.102.479.247.684.433.205.186.373.426.504.72.13.295.195.653.195 1.081 0 .579-.123 1.033-.37 1.364-.247.33-.551.579-.914.746-.363.169-.757.274-1.182.321-.423.048-.812.069-1.167.069h-2.43v-7.877zm1.243 2.696h.642c.205 0 .445-.009.72-.029.274-.018.535-.083.782-.195.246-.112.457-.289.628-.531.173-.242.259-.585.259-1.034 0-.354-.054-.644-.161-.873-.107-.228-.254-.409-.44-.544-.186-.135-.405-.23-.656-.287-.251-.056-.517-.084-.796-.084-.224 0-.399.013-.524.035-.125.024-.223.077-.294.161-.069.084-.114.203-.132.356-.019.154-.028.361-.028.622v2.403zm0 3.465c0 .261.007.469.021.622.014.152.059.271.133.355.075.083.193.137.357.161.163.022.389.035.677.035.29 0 .571-.034.846-.099.274-.064.522-.173.74-.32.219-.15.396-.352.531-.602.135-.251.203-.563.203-.938 0-.5-.093-.896-.28-1.18-.186-.283-.421-.498-.705-.642-.285-.144-.594-.233-.93-.267-.334-.033-.652-.047-.95-.047h-.643v2.922z"/><path clip-path="url(#b)" fill="#83B719" d="M16.441 14.433h-3.147l-.05.049v.816l.05.051h3.147l.05-.051v-.816l-.05-.049"/></g></svg>