<?xml version="1.0" encoding="utf-8"?>
<!-- Generator: Adobe Illustrator 13.0.0, SVG Export Plug-In . SVG Version: 6.00 Build 14948)  -->
<!DOCTYPE svg PUBLIC "-//W3C//DTD SVG 1.1//EN" "http://www.w3.org/Graphics/SVG/1.1/DTD/svg11.dtd">
<svg version="1.1" id="Calque_1" xmlns="http://www.w3.org/2000/svg" xmlns:xlink="http://www.w3.org/1999/xlink" x="0px" y="0px"
	 width="202.523px" height="82.218px" viewBox="0 0 202.523 82.218" enable-background="new 0 0 202.523 82.218"
	 xml:space="preserve">
<g>
	<path fill="#262727" d="M81.392,32.18h9.707c4.213,0,7.311,2.809,7.311,7.229c0,3.14-1.529,5.246-3.76,6.32v0.082
		c2.852,0.785,4.916,3.594,4.916,7.312c0,4.832-3.428,7.972-8.055,7.972H81.392V32.18z M91.058,45.068
		c3.221,0,5.492-2.23,5.492-5.659c0-3.387-2.146-5.576-5.535-5.576h-7.847v11.235H91.058z M91.347,59.442
		c3.883,0,6.36-2.396,6.36-6.319s-2.684-6.402-6.403-6.402h-8.136v12.722H91.347z"/>
	<path fill="#262727" d="M115.214,32.18h15.82v1.652h-14.043v11.854h11.523v1.652h-11.523v12.103h14.828v1.652h-16.605V32.18z"/>
	<path fill="#262727" d="M146.644,32.18h1.775v18.918c0,5.452,3.553,8.798,9.006,8.798c5.451,0,9.045-3.346,9.045-8.88V32.18h1.775
		v19.001c0,6.36-4.418,10.409-10.779,10.409s-10.822-4.049-10.822-10.409V32.18z"/>
	<path fill="#262727" d="M182.367,59.69l15.902-23.214c0.99-1.487,1.982-2.644,1.982-2.644V33.75c0,0-0.66,0.083-2.107,0.083h-14.91
		V32.18H202.4v1.404l-15.902,23.214c-0.992,1.487-1.984,2.644-1.984,2.644v0.083c0,0,0.662-0.083,2.107-0.083h15.902v1.652h-20.156
		V59.69z"/>
</g>
<path fill="#3C2525" d="M74.81,10.652c-14.791-11-35.164-12.166-51-2.604C7.997,17.598-0.603,36.295,2.387,54.509
	c1.742,10.608,7.288,20.496,15.545,27.404c1.096,0.917-0.651-0.507-0.926-0.736c-14.211-11.893-20.519-31-15.05-48.908
	C7.548,13.958,24.558,0.852,43.666,0.041c10.573-0.449,20.93,2.866,29.404,9.168C73.634,9.629,74.366,10.322,74.81,10.652"/>
<circle fill="#6DAD3C" cx="67.976" cy="47.542" r="3.086"/>
<path fill="#3C2525" d="M25.305,58.835V21.864H42.69c7.462,0,13.625,2.142,13.625,12.132c0,5.388-2.658,9.281-7.979,10.316v0.129
	c6.94,0.977,8.76,5.449,8.76,11.876c0,11.873-10.317,12.391-14.469,12.391h-7.452C29.724,68.708,25.305,64.29,25.305,58.835
	 M35.099,41.003h6.552c2.142,0,5.128-1.428,5.128-5.967c0-3.44-2.337-5.969-5.646-5.969h-6.034V41.003z M35.099,61.505h5.451
	c2.077,0,6.747-0.063,6.747-6.616c0-4.151-1.556-6.684-6.489-6.684h-5.709V61.505z"/>
</svg>
