<svg xmlns="http://www.w3.org/2000/svg" xmlns:xlink="http://www.w3.org/1999/xlink" width="40" height="30" viewBox="0 0 40 30"><g><defs><path id="a" d="M-3.833-1.455h47.708v32.799h-47.708z"/></defs><clipPath id="b"><use xlink:href="#a" overflow="visible"/></clipPath><path clip-path="url(#b)" fill="#605046" d="M19.787 12.045h-.532c-.971.023-1.706.761-1.748 1.755v2.177c.042.987.76 1.71 1.749 1.76h.533c.977-.05 1.696-.772 1.746-1.764v-2.175c-.051-.992-.785-1.73-1.748-1.753m-.531.727h.529c.571.023.99.447 1.021 1.028v2.172c-.031.585-.441.999-1.02 1.03h-.529c-.581-.031-.992-.445-1.022-1.029v-2.169c.033-.585.453-1.009 1.021-1.032M24.141 15.383h-.708c-.298-.004-.434-.235-.434-.448 0-.214.136-.445.433-.449h1.209l.05-.05v-.45l-.027-.044c-.16-.084-.335-.126-.522-.126h-.709c-.764.005-1.11.599-1.11 1.148 0 .55.347 1.145 1.11 1.148h.708c.298.004.433.235.434.449 0 .213-.136.445-.433.448h-1.521l-.05.051v.458l.027.046c.155.077.33.117.505.117h1.039c.769-.004 1.118-.598 1.118-1.148-.001-.551-.351-1.146-1.119-1.15M30.303 13.814h-.281c-.405 0-.806.18-1.081.484-.217-.3-.57-.484-.937-.484h-.282c-.303 0-.605.099-.86.279v-.228l-.05-.051h-.635l-.051.051v3.766l.051.05h.635l.05-.05v-2.696c0-.242.203-.449.441-.449h.676c.245 0 .441.198.449.449v2.696l.05.05h.637l.05-.05v-2.696c0-.248.201-.449.448-.449h.669c.246 0 .448.202.448.449v2.696l.049.05h.637l.05-.05v-2.656c-.01-.642-.519-1.152-1.163-1.161M34.528 13.823h-.716c-.642.008-1.152.518-1.16 1.161v1.537c.008.643.519 1.152 1.16 1.16h.717c.643-.008 1.151-.518 1.159-1.161v-1.537c-.007-.643-.516-1.152-1.16-1.16m.425.871v1.866c0 .244-.197.441-.448.448h-.914c-.113-.006-.195-.092-.203-.206v-1.859c0-.244.198-.44.45-.45h.917c.108.001.198.09.198.201M39.35 14.444v-.571l-.048-.05h-2.615l-.052.05v.571l.052.05h1.736l-1.779 2.537-.009.029v.571l.052.05h2.615l.048-.05v-.571l-.048-.051h-1.747l1.787-2.536.008-.029"/></g><g><defs><path id="c" d="M-3.833-1.455h47.708v32.799h-47.708z"/></defs><clipPath id="d"><use xlink:href="#c" overflow="visible"/></clipPath><path clip-path="url(#d)" fill="#605046" d="M14.615 14.891c0-3.875-3.141-7.017-7.017-7.017-3.874 0-7.016 3.141-7.016 7.017 0 3.875 3.142 7.016 7.016 7.016 3.876 0 7.017-3.141 7.017-7.016"/><path clip-path="url(#d)" fill="#fff" d="M5.265 11.664c0-.261-.028-.468-.084-.622-.056-.154-.135-.268-.237-.343s-.231-.123-.384-.146c-.154-.024-.446-.027-.632-.027l.123-.288h3.437c.27 0 .595.011.978.035.381.023.749.105 1.103.245s.657.362.908.664c.251.303.377.733.377 1.292 0 .354-.056.652-.167.894-.112.242-.25.443-.413.601-.164.157-.34.284-.531.377-.191.093-.37.168-.537.225v.027c.242.038.488.107.74.209.251.102.479.247.684.433.205.186.373.426.504.72.13.295.195.653.195 1.081 0 .579-.123 1.033-.37 1.364-.247.33-.551.579-.914.746-.363.169-.757.274-1.182.321-.423.048-.812.069-1.167.069h-2.43v-7.877zm1.243 2.696h.642c.205 0 .445-.009.72-.029.274-.018.535-.083.782-.195.246-.112.457-.289.628-.531.173-.242.259-.585.259-1.034 0-.354-.054-.644-.161-.873-.107-.228-.254-.409-.44-.544-.186-.135-.405-.23-.656-.287-.251-.056-.517-.084-.796-.084-.224 0-.399.013-.524.035-.125.024-.223.077-.294.161-.069.084-.114.203-.132.356-.019.154-.028.361-.028.622v2.403zm0 3.465c0 .261.007.469.021.622.014.152.059.271.133.355.075.083.193.137.357.161.163.022.389.035.677.035.29 0 .571-.034.846-.099.274-.064.522-.173.74-.32.219-.15.396-.352.531-.602.135-.251.203-.563.203-.938 0-.5-.093-.896-.28-1.18-.186-.283-.421-.498-.705-.642-.285-.144-.594-.233-.93-.267-.334-.033-.652-.047-.95-.047h-.643v2.922z"/><path clip-path="url(#d)" fill="#83B719" d="M16.441 14.433h-3.147l-.05.049v.816l.05.051h3.147l.05-.051v-.816l-.05-.049"/></g></svg>