<?xml version="1.0" encoding="utf-8"?>
<!-- Generator: Adobe Illustrator 13.0.0, SVG Export Plug-In . SVG Version: 6.00 Build 14948)  -->
<!DOCTYPE svg PUBLIC "-//W3C//DTD SVG 1.1//EN" "http://www.w3.org/Graphics/SVG/1.1/DTD/svg11.dtd">
<svg version="1.1" id="Calque_1" xmlns="http://www.w3.org/2000/svg" xmlns:xlink="http://www.w3.org/1999/xlink" x="0px" y="0px"
	 width="257.162px" height="82.218px" viewBox="0 0 257.162 82.218" enable-background="new 0 0 257.162 82.218"
	 xml:space="preserve">
<g>
	<path fill="#262727" d="M93.99,31.685c8.055,0,14.623,6.443,14.623,14.746c0,8.509-6.568,15.159-14.623,15.159
		s-14.621-6.65-14.621-15.159C79.369,38.128,85.935,31.685,93.99,31.685z M93.99,59.896c7.063,0,12.764-5.865,12.764-13.465
		c0-7.395-5.701-13.053-12.764-13.053s-12.764,5.658-12.764,13.053C81.226,54.031,86.927,59.896,93.99,59.896z"/>
	<path fill="#262727" d="M122.814,56.633c0,0,2.932,3.222,7.725,3.222c3.594,0,6.443-2.23,6.443-5.7
		c0-8.22-14.787-5.948-14.787-14.994c0-3.841,3.428-7.476,8.674-7.476c4.709,0,7.352,2.685,7.352,2.685l-0.99,1.528
		c0,0-2.479-2.479-6.32-2.479c-4.295,0-6.857,2.892-6.857,5.7c0,7.642,14.787,5.287,14.787,14.953c0,4.172-3.221,7.518-8.385,7.518
		c-5.699,0-8.838-3.594-8.838-3.594L122.814,56.633z"/>
	<path fill="#262727" d="M155.4,32.18h1.734l8.426,18.175c0.662,1.404,1.404,3.263,1.404,3.263h0.082c0,0,0.744-1.858,1.406-3.263
		l8.426-18.175h1.734l2.313,28.914h-1.775l-1.774-22.058c-0.125-1.404-0.125-3.841-0.125-3.841h-0.082c0,0-0.827,2.437-1.487,3.841
		l-7.766,16.481h-1.818l-7.725-16.481c-0.619-1.362-1.527-3.924-1.527-3.924h-0.082c0,0,0,2.52-0.125,3.924l-1.775,22.058h-1.777
		L155.4,32.18z"/>
	<path fill="#262727" d="M209.875,31.685c8.052,0,14.62,6.443,14.62,14.746c0,8.509-6.568,15.159-14.62,15.159
		c-8.056,0-14.624-6.65-14.624-15.159C195.251,38.128,201.82,31.685,209.875,31.685z M209.875,59.896
		c7.062,0,12.761-5.865,12.761-13.465c0-7.395-5.699-13.053-12.761-13.053c-7.065,0-12.765,5.658-12.765,13.053
		C197.111,54.031,202.81,59.896,209.875,59.896z"/>
	<path fill="#262727" d="M237.003,59.69l15.902-23.214c0.992-1.487,1.984-2.644,1.984-2.644V33.75c0,0-0.662,0.083-2.107,0.083
		h-14.912V32.18h19.166v1.404l-15.902,23.214c-0.99,1.487-1.982,2.644-1.982,2.644v0.083c0,0,0.66-0.083,2.107-0.083h15.902v1.652
		h-20.158V59.69z"/>
</g>
<path fill="#3C2525" d="M74.81,10.652c-14.791-11-35.164-12.166-50.999-2.604C7.997,17.598-0.603,36.295,2.387,54.509
	c1.742,10.608,7.288,20.496,15.545,27.404c1.096,0.917-0.651-0.507-0.926-0.736c-14.211-11.893-20.519-31-15.05-48.908
	C7.548,13.958,24.558,0.852,43.666,0.041c10.573-0.449,20.93,2.866,29.404,9.168C73.634,9.629,74.366,10.322,74.81,10.652"/>
<circle fill="#6DAD3C" cx="67.976" cy="47.542" r="3.085"/>
<path fill="#3C2525" d="M25.305,58.835V21.864H42.69c7.462,0,13.625,2.142,13.625,12.132c0,5.388-2.659,9.281-7.979,10.316v0.129
	c6.94,0.977,8.76,5.449,8.76,11.876c0,11.873-10.317,12.391-14.469,12.391h-7.452C29.724,68.708,25.305,64.29,25.305,58.835
	 M35.099,41.003h6.552c2.142,0,5.128-1.428,5.128-5.967c0-3.44-2.337-5.969-5.646-5.969h-6.034V41.003z M35.099,61.505h5.451
	c2.077,0,6.747-0.063,6.747-6.616c0-4.151-1.556-6.684-6.489-6.684h-5.709V61.505z"/>
</svg>
