<?xml version="1.0" encoding="utf-8"?>
<!-- Generator: Adobe Illustrator 13.0.0, SVG Export Plug-In . SVG Version: 6.00 Build 14948)  -->
<!DOCTYPE svg PUBLIC "-//W3C//DTD SVG 1.1//EN" "http://www.w3.org/Graphics/SVG/1.1/DTD/svg11.dtd">
<svg version="1.1" id="Calque_1" xmlns="http://www.w3.org/2000/svg" xmlns:xlink="http://www.w3.org/1999/xlink" x="0px" y="0px"
	 width="165.438px" height="82.218px" viewBox="0 0 165.438 82.218" enable-background="new 0 0 165.438 82.218"
	 xml:space="preserve">
<g>
	<path fill="#262727" d="M78.749,59.69l15.902-23.214c0.991-1.487,1.983-2.644,1.983-2.644V33.75c0,0-0.661,0.083-2.107,0.083
		H79.616V32.18h19.166v1.404L82.879,56.798c-0.991,1.487-1.982,2.644-1.982,2.644v0.083c0,0,0.66-0.083,2.106-0.083h15.902v1.652
		H78.749V59.69z"/>
	<path fill="#262727" d="M128.021,51.098h-12.268l-3.718,9.996h-1.9l10.822-28.914h1.9l10.822,28.914h-1.9L128.021,51.098z
		 M121.867,34.246c0,0-0.62,2.23-1.074,3.47l-4.42,11.73h11.028l-4.378-11.73c-0.454-1.239-1.074-3.47-1.074-3.47H121.867z"/>
	<path fill="#262727" d="M147.139,32.18h9.5c5.04,0,8.799,3.181,8.799,8.427c0,5.245-3.759,8.509-8.799,8.509h-7.724v11.979h-1.776
		V32.18z M156.557,47.463c4.213,0,7.021-2.52,7.021-6.856s-2.809-6.774-7.021-6.774h-7.642v13.631H156.557z"/>
</g>
<path fill="#3C2525" d="M74.81,10.652c-14.791-11-35.164-12.166-51-2.604C7.997,17.598-0.603,36.295,2.387,54.509
	C4.13,65.118,9.675,75.005,17.933,81.914c1.095,0.917-0.651-0.507-0.926-0.736c-14.211-11.893-20.519-31-15.05-48.908
	C7.548,13.958,24.558,0.852,43.666,0.041c10.574-0.449,20.93,2.866,29.405,9.168C73.634,9.629,74.367,10.322,74.81,10.652"/>
<circle fill="#6DAD3C" cx="67.976" cy="47.542" r="3.086"/>
<path fill="#3C2525" d="M25.305,58.835V21.864H42.69c7.461,0,13.625,2.142,13.625,12.132c0,5.388-2.659,9.281-7.979,10.316v0.129
	c6.94,0.977,8.759,5.449,8.759,11.876c0,11.873-10.317,12.391-14.468,12.391h-7.453C29.724,68.708,25.305,64.29,25.305,58.835
	 M35.1,41.003h6.551c2.142,0,5.128-1.428,5.128-5.967c0-3.44-2.337-5.969-5.646-5.969H35.1V41.003z M35.1,61.505h5.45
	c2.078,0,6.747-0.063,6.747-6.616c0-4.151-1.556-6.684-6.489-6.684H35.1V61.505z"/>
</svg>
