<svg xmlns="http://www.w3.org/2000/svg" xmlns:xlink="http://www.w3.org/1999/xlink" width="40" height="30" viewBox="0 0 40 30"><g><defs><path id="a" d="M-8.25-1.171h46.75v32.139h-46.75z"/></defs><clipPath id="b"><use xlink:href="#a" overflow="visible"/></clipPath><path clip-path="url(#b)" fill="#605046" d="M21.354 12.127h-3.7l-.047.048v.623l.047.049h2.839l-2.878 4.037-.008.036v.616l.047.049h3.7l.049-.049v-.624l-.049-.046h-2.843l2.882-4.041.01-.028v-.623l-.049-.047M24.091 13.797h-.703c-.162 0-.328.037-.492.107l-.029.045v.458l.049.049h1.152c.24 0 .43.189.439.438v.472c-.244-.181-.547-.284-.842-.284h-.277c-.627 0-1.139.511-1.139 1.138v.237c0 .621.512 1.128 1.139 1.128h.277c.307 0 .592-.094.842-.277v.229l.047.049h.625l.047-.049v-2.602c0-.616-.52-1.138-1.135-1.138m-.024 3.131h-.664c-.244 0-.43-.189-.438-.439v-.307c.008-.253.191-.44.438-.44h.664c.24 0 .43.189.439.44v.307c.001.249-.189.439-.439.439"/><path clip-path="url(#b)" fill="#605046" d="M28.229 13.797h-.277c-.295 0-.59.098-.84.273v-.223l-.051-.05h-.621l-.049.05v5.363l.049.046h.621l.051-.046v-1.904c.246.181.541.279.84.279h.277c.617 0 1.137-.517 1.137-1.128v-1.522c0-.618-.508-1.129-1.137-1.138m-1.117 1.099c0-.242.195-.438.438-.438h.656c.242 0 .438.196.438.438v1.6c0 .235-.199.433-.438.433h-.9c-.107 0-.188-.082-.193-.194v-1.839z"/></g><g><defs><path id="c" d="M-3.833-1.455h47.708v32.799h-47.708z"/></defs><clipPath id="d"><use xlink:href="#c" overflow="visible"/></clipPath><path clip-path="url(#d)" fill="#605046" d="M14.615 14.891c0-3.875-3.141-7.017-7.017-7.017-3.874 0-7.016 3.141-7.016 7.017 0 3.875 3.142 7.016 7.016 7.016 3.876 0 7.017-3.141 7.017-7.016"/><path clip-path="url(#d)" fill="#fff" d="M5.265 11.664c0-.261-.028-.468-.084-.622-.056-.154-.135-.268-.237-.343s-.231-.123-.384-.146c-.154-.024-.446-.027-.632-.027l.123-.288h3.437c.27 0 .595.011.978.035.381.023.749.105 1.103.245s.657.362.908.664c.251.303.377.733.377 1.292 0 .354-.056.652-.167.894-.112.242-.25.443-.413.601-.164.157-.34.284-.531.377-.191.093-.37.168-.537.225v.027c.242.038.488.107.74.209.251.102.479.247.684.433.205.186.373.426.504.72.13.295.195.653.195 1.081 0 .579-.123 1.033-.37 1.364-.247.33-.551.579-.914.746-.363.169-.757.274-1.182.321-.423.048-.812.069-1.167.069h-2.43v-7.877zm1.243 2.696h.642c.205 0 .445-.009.72-.029.274-.018.535-.083.782-.195.246-.112.457-.289.628-.531.173-.242.259-.585.259-1.034 0-.354-.054-.644-.161-.873-.107-.228-.254-.409-.44-.544-.186-.135-.405-.23-.656-.287-.251-.056-.517-.084-.796-.084-.224 0-.399.013-.524.035-.125.024-.223.077-.294.161-.069.084-.114.203-.132.356-.019.154-.028.361-.028.622v2.403zm0 3.465c0 .261.007.469.021.622.014.152.059.271.133.355.075.083.193.137.357.161.163.022.389.035.677.035.29 0 .571-.034.846-.099.274-.064.522-.173.74-.32.219-.15.396-.352.531-.602.135-.251.203-.563.203-.938 0-.5-.093-.896-.28-1.18-.186-.283-.421-.498-.705-.642-.285-.144-.594-.233-.93-.267-.334-.033-.652-.047-.95-.047h-.643v2.922z"/><path clip-path="url(#d)" fill="#83B719" d="M16.441 14.433h-3.147l-.05.049v.816l.05.051h3.147l.05-.051v-.816l-.05-.049"/></g></svg>