<svg xmlns="http://www.w3.org/2000/svg" xmlns:xlink="http://www.w3.org/1999/xlink" width="40" height="30" viewBox="0 0 40 30"><g fill="#605046"><path d="M21.399 12.03h-3.852l-.051.052v.648l.051.051h2.955l-2.997 4.206-.01.039v.64l.051.052h3.852l.052-.052v-.648l-.052-.052h-2.961l3.002-4.206.011-.03v-.648l-.051-.052M24.25 13.771h-.729c-.646 0-1.177.531-1.188 1.186v1.578c.011.655.531 1.176 1.188 1.184h.729c.169 0 .34-.038.504-.111l.033-.046v-.479l-.052-.051h-1.445c-.113 0-.197-.085-.204-.202v-.45h1.164c.642 0 1.185-.543 1.185-1.186v-.238c0-.643-.543-1.185-1.185-1.185m.435 1.145v.32c0 .252-.206.458-.459.458h-1.14v-.778c0-.254.206-.458.459-.458h.681c.253 0 .459.204.459.458M28.322 13.771h-.294c-.313 0-.621.103-.876.291v-.239l-.054-.051h-.646l-.054.051v3.844l.054.052h.646l.054-.052v-2.75c.006-.258.21-.458.459-.458h.689c.243 0 .45.208.45.458v2.75l.052.052h.647l.052-.052v-2.709c0-.646-.528-1.179-1.179-1.187"/></g><g><defs><path id="a" d="M-3.833-1.455h47.708v32.799h-47.708z"/></defs><clipPath id="b"><use xlink:href="#a" overflow="visible"/></clipPath><path clip-path="url(#b)" fill="#605046" d="M14.615 14.891c0-3.875-3.141-7.017-7.017-7.017-3.874 0-7.016 3.141-7.016 7.017 0 3.875 3.142 7.016 7.016 7.016 3.876 0 7.017-3.141 7.017-7.016"/><path clip-path="url(#b)" fill="#fff" d="M5.265 11.664c0-.261-.028-.468-.084-.622-.056-.154-.135-.268-.237-.343s-.231-.123-.384-.146c-.154-.024-.446-.027-.632-.027l.123-.288h3.437c.27 0 .595.011.978.035.381.023.749.105 1.103.245s.657.362.908.664c.251.303.377.733.377 1.292 0 .354-.056.652-.167.894-.112.242-.25.443-.413.601-.164.157-.34.284-.531.377-.191.093-.37.168-.537.225v.027c.242.038.488.107.74.209.251.102.479.247.684.433.205.186.373.426.504.72.13.295.195.653.195 1.081 0 .579-.123 1.033-.37 1.364-.247.33-.551.579-.914.746-.363.169-.757.274-1.182.321-.423.048-.812.069-1.167.069h-2.43v-7.877zm1.243 2.696h.642c.205 0 .445-.009.72-.029.274-.018.535-.083.782-.195.246-.112.457-.289.628-.531.173-.242.259-.585.259-1.034 0-.354-.054-.644-.161-.873-.107-.228-.254-.409-.44-.544-.186-.135-.405-.23-.656-.287-.251-.056-.517-.084-.796-.084-.224 0-.399.013-.524.035-.125.024-.223.077-.294.161-.069.084-.114.203-.132.356-.019.154-.028.361-.028.622v2.403zm0 3.465c0 .261.007.469.021.622.014.152.059.271.133.355.075.083.193.137.357.161.163.022.389.035.677.035.29 0 .571-.034.846-.099.274-.064.522-.173.74-.32.219-.15.396-.352.531-.602.135-.251.203-.563.203-.938 0-.5-.093-.896-.28-1.18-.186-.283-.421-.498-.705-.642-.285-.144-.594-.233-.93-.267-.334-.033-.652-.047-.95-.047h-.643v2.922z"/><path clip-path="url(#b)" fill="#83B719" d="M16.441 14.433h-3.147l-.05.049v.816l.05.051h3.147l.05-.051v-.816l-.05-.049"/></g></svg>