<svg xmlns="http://www.w3.org/2000/svg" xmlns:xlink="http://www.w3.org/1999/xlink" width="40" height="30" viewBox="0 0 40 30"><g fill="#605046"><path d="M21.42 12.068h-3.806l-.051.051v.641l.051.051h2.921l-2.963 4.155-.009.038v.634l.051.05h3.806l.052-.05v-.643l-.052-.05h-2.926l2.968-4.156.01-.029v-.641l-.052-.051M24.236 13.789h-.724c-.636 0-1.161.524-1.17 1.17v1.56c.009.646.522 1.162 1.17 1.169h.724c.167 0 .335-.037.5-.109l.029-.046v-.472l-.05-.05h-1.43c-.111 0-.192-.085-.199-.2v-.446h1.149c.635 0 1.172-.535 1.172-1.169v-.236c.001-.636-.536-1.171-1.171-1.171m.428 1.13v.316c0 .249-.201.452-.451.452h-1.126v-.769c0-.251.203-.453.452-.453h.674c.25.001.451.203.451.454M28.262 13.789h-.292c-.309 0-.612.102-.865.287v-.237l-.052-.05h-.641l-.052.05v3.799l.052.05h.641l.052-.05v-2.718c.007-.254.204-.454.451-.454h.683c.24 0 .443.208.443.452v2.72l.05.05h.643l.05-.05v-2.679c-.001-.637-.522-1.162-1.163-1.17M31.183 12.068h-.386c-.099.012-.165.073-.175.166v.393c.01.1.072.164.18.176h.387c.102-.012.165-.076.176-.181v-.388c-.011-.092-.077-.154-.182-.166M31.314 13.78h-.643l-.05.051v3.807l.05.05h.643l.05-.05v-3.807l-.05-.051M34.453 13.789h-.283c-.319 0-.625.101-.875.285v-1.956l-.05-.05h-.632l-.052.05v4.399c0 .646.521 1.17 1.163 1.17h.729l.052-.05v-.577l-.052-.05h-.704c-.246 0-.447-.2-.454-.453v-1.646c.007-.248.208-.447.454-.453h.704l.052-.051v-.569l-.052-.049M37.271 13.78h-.285c-.305 0-.614.106-.865.294v-1.956l-.05-.05h-.643l-.05.05v5.512l.05.051h.643l.05-.051v-2.72c0-.249.203-.451.453-.451h.674c.249 0 .45.202.45.451v2.72l.05.051.643.007.036-.015.016-.035v-2.688c-.01-.637-.536-1.161-1.172-1.17"/></g><g><defs><path id="a" d="M-3.833-1.455h47.708v32.799h-47.708z"/></defs><clipPath id="b"><use xlink:href="#a" overflow="visible"/></clipPath><path clip-path="url(#b)" fill="#605046" d="M14.615 14.891c0-3.875-3.141-7.017-7.017-7.017-3.874 0-7.016 3.141-7.016 7.017 0 3.875 3.142 7.016 7.016 7.016 3.876 0 7.017-3.141 7.017-7.016"/><path clip-path="url(#b)" fill="#fff" d="M5.265 11.664c0-.261-.028-.468-.084-.622-.056-.154-.135-.268-.237-.343s-.231-.123-.384-.146c-.154-.024-.446-.027-.632-.027l.123-.288h3.437c.27 0 .595.011.978.035.381.023.749.105 1.103.245s.657.362.908.664c.251.303.377.733.377 1.292 0 .354-.056.652-.167.894-.112.242-.25.443-.413.601-.164.157-.34.284-.531.377-.191.093-.37.168-.537.225v.027c.242.038.488.107.74.209.251.102.479.247.684.433.205.186.373.426.504.72.13.295.195.653.195 1.081 0 .579-.123 1.033-.37 1.364-.247.33-.551.579-.914.746-.363.169-.757.274-1.182.321-.423.048-.812.069-1.167.069h-2.43v-7.877zm1.243 2.696h.642c.205 0 .445-.009.72-.029.274-.018.535-.083.782-.195.246-.112.457-.289.628-.531.173-.242.259-.585.259-1.034 0-.354-.054-.644-.161-.873-.107-.228-.254-.409-.44-.544-.186-.135-.405-.23-.656-.287-.251-.056-.517-.084-.796-.084-.224 0-.399.013-.524.035-.125.024-.223.077-.294.161-.069.084-.114.203-.132.356-.019.154-.028.361-.028.622v2.403zm0 3.465c0 .261.007.469.021.622.014.152.059.271.133.355.075.083.193.137.357.161.163.022.389.035.677.035.29 0 .571-.034.846-.099.274-.064.522-.173.74-.32.219-.15.396-.352.531-.602.135-.251.203-.563.203-.938 0-.5-.093-.896-.28-1.18-.186-.283-.421-.498-.705-.642-.285-.144-.594-.233-.93-.267-.334-.033-.652-.047-.95-.047h-.643v2.922z"/><path clip-path="url(#b)" fill="#83B719" d="M16.441 14.433h-3.147l-.05.049v.816l.05.051h3.147l.05-.051v-.816l-.05-.049"/></g></svg>