<?xml version="1.0" encoding="utf-8"?>
<!-- Generator: Adobe Illustrator 13.0.0, SVG Export Plug-In . SVG Version: 6.00 Build 14948)  -->
<!DOCTYPE svg PUBLIC "-//W3C//DTD SVG 1.1//EN" "http://www.w3.org/Graphics/SVG/1.1/DTD/svg11.dtd">
<svg version="1.1" id="Calque_1" xmlns="http://www.w3.org/2000/svg" xmlns:xlink="http://www.w3.org/1999/xlink" x="0px" y="0px"
	 width="167.834px" height="82.218px" viewBox="0 0 167.834 82.218" enable-background="new 0 0 167.834 82.218"
	 xml:space="preserve">
<g>
	<path fill="#262727" d="M78.749,59.69l15.902-23.214c0.991-1.487,1.983-2.644,1.983-2.644V33.75c0,0-0.661,0.083-2.107,0.083
		H79.616V32.18h19.166v1.404L82.879,56.798c-0.991,1.487-1.982,2.644-1.982,2.644v0.083c0,0,0.66-0.083,2.106-0.083h15.902v1.652
		H78.749V59.69z"/>
	<path fill="#262727" d="M113.853,32.18h15.82v1.652h-14.044v11.854h11.524v1.652h-11.524v12.103h14.828v1.652h-16.604V32.18z"/>
	<path fill="#262727" d="M145.695,32.18h1.652l16.48,22.677c0.95,1.322,2.354,3.635,2.354,3.635h0.083c0,0-0.207-2.188-0.207-3.635
		V32.18h1.776v28.914h-1.652l-16.48-22.677c-0.95-1.321-2.354-3.635-2.354-3.635h-0.083c0,0,0.207,2.189,0.207,3.635v22.677h-1.776
		V32.18z"/>
</g>
<path fill="#3C2525" d="M74.81,10.652c-14.791-11-35.164-12.166-51-2.604C7.997,17.598-0.603,36.295,2.387,54.509
	c1.743,10.608,7.288,20.496,15.545,27.404c1.096,0.917-0.651-0.507-0.926-0.737C2.795,69.285-3.512,50.177,1.956,32.269
	C7.548,13.958,24.558,0.851,43.666,0.041c10.573-0.449,20.93,2.866,29.404,9.168C73.634,9.629,74.366,10.322,74.81,10.652"/>
<circle fill="#6DAD3C" cx="67.976" cy="47.542" r="3.086"/>
<path fill="#3C2525" d="M25.305,58.835V21.864H42.69c7.462,0,13.625,2.142,13.625,12.133c0,5.387-2.659,9.28-7.979,10.315v0.129
	c6.941,0.977,8.759,5.449,8.759,11.876c0,11.873-10.316,12.391-14.468,12.391h-7.452C29.724,68.708,25.305,64.29,25.305,58.835
	 M35.099,41.003h6.552c2.142,0,5.128-1.428,5.128-5.967c0-3.44-2.337-5.969-5.646-5.969h-6.034V41.003z M35.099,61.505h5.45
	c2.078,0,6.747-0.063,6.747-6.616c0-4.151-1.556-6.684-6.488-6.684h-5.709V61.505z"/>
</svg>
