<!DOCTYPE svg PUBLIC "-//W3C//DTD SVG 1.1//EN" "http://www.w3.org/Graphics/SVG/1.1/DTD/svg11.dtd" [
	<!ENTITY ns_flows "http://ns.adobe.com/Flows/1.0/">
]><svg xmlns="http://www.w3.org/2000/svg" width="30" height="32" viewBox="-5.716 -2.43 30 32" overflow="visible" enable-background="new -5.716 -2.43 30 32"><path fill="#fff" d="M3.399 12.284v-4.306c0-.238.065-5.747 5.746-5.747 5.544 0 5.739 5.157 5.748 5.747v4.643h2.225v-4.643c0-2.762-1.667-7.978-7.972-7.978-6.305 0-7.976 5.216-7.976 7.978v4.306h-1.17v13.716h18.293v-13.716h-14.894zM12.581 18.724c0-1.89-1.54-3.425-3.436-3.425-1.893 0-3.427 1.535-3.427 3.425 0 1.898 1.534 3.433 3.427 3.433 1.896 0 3.436-1.535 3.436-3.433z"/><path fill="#615046" d="M9.146 22.789c-2.239 0-4.063-1.821-4.063-4.065 0-2.24 1.824-4.063 4.063-4.063 2.244 0 4.065 1.823 4.065 4.063 0 2.244-1.821 4.065-4.065 4.065zm0-6.857c-1.542 0-2.794 1.252-2.794 2.792 0 1.543 1.252 2.795 2.794 2.795 1.546 0 2.798-1.251 2.798-2.795-.001-1.54-1.253-2.792-2.798-2.792z"/></svg>