<!DOCTYPE svg PUBLIC "-//W3C//DTD SVG 1.1//EN" "http://www.w3.org/Graphics/SVG/1.1/DTD/svg11.dtd" [
	<!ENTITY ns_flows "http://ns.adobe.com/Flows/1.0/">
]><svg xmlns="http://www.w3.org/2000/svg" width="17" height="12" viewBox="290.283 261.875 17 12" overflow="visible" enable-background="new 290.283 261.875 17 12"><path fill="#615046" d="M296.924 265.718v.002c-.001-.224-.075-2.203-2.203-2.203-2.175 0-2.2 2.111-2.2 2.203v1.752h-.855v-1.752c0-1.058.64-3.057 3.056-3.057 2.42 0 3.062 2.004 3.062 3.061v-.011"/><path fill="#615046" d="M291.25 267.404h7.012v5.258h-7.012z"/><circle fill="#83B71B" cx="294.755" cy="269.984" r="1.315"/><path fill="#fff" d="M294.756 271.542c-.86 0-1.559-.698-1.559-1.558 0-.858.698-1.558 1.559-1.558.859 0 1.557.699 1.557 1.558 0 .86-.697 1.558-1.557 1.558zm0-2.629c-.592 0-1.071.48-1.071 1.071s.479 1.072 1.071 1.072 1.071-.481 1.071-1.072c.001-.59-.479-1.071-1.071-1.071z"/><path fill="#A6A8AB" d="M300.677 267.707v-1.615c0-.087.024-2.153 2.153-2.153 2.078 0 2.154 1.933 2.155 2.153v1.742h.835v-1.742c0-1.034-.625-2.991-2.99-2.991-2.362 0-2.988 1.957-2.988 2.991v1.615h-.438v5.142h6.858v-5.142h-5.585z"/><circle fill="#A6A8AB" cx="302.833" cy="270.123" r="1.287"/><path fill="#fff" d="M302.833 271.646c-.84 0-1.524-.684-1.524-1.523 0-.841.685-1.524 1.524-1.524s1.523.683 1.523 1.524c0 .839-.684 1.523-1.523 1.523zm0-2.571c-.578 0-1.048.471-1.048 1.048s.47 1.047 1.048 1.047 1.047-.47 1.047-1.047-.469-1.048-1.047-1.048z"/></svg>