<!DOCTYPE svg PUBLIC "-//W3C//DTD SVG 1.1//EN" "http://www.w3.org/Graphics/SVG/1.1/DTD/svg11.dtd" [
	<!ENTITY ns_flows "http://ns.adobe.com/Flows/1.0/">
]><svg xmlns="http://www.w3.org/2000/svg" width="32" height="25" viewBox="63.975 11.268 32 25" overflow="visible" enable-background="new 63.975 11.268 32 25"><path fill="#fff" d="M65.442 31.533c-.147 0-.291-.083-.376-.229-.13-.225-.068-.523.139-.664l7.238-4.904 3.61 3.91 3.72-8.05 7.762 4.196 6.488-4.687c.206-.149.485-.091.626.134.13.226.077.523-.125.673l-6.924 5.001-7.428-4.018-3.875 8.386-3.981-4.313-6.636 4.489c-.072.054-.154.076-.238.076zM65.442 34.758c-.138 0-.279-.071-.365-.207-.14-.221-.092-.522.114-.677l9.722-7.315 8.634.664 10.376-14.278c.15-.214.433-.248.628-.081.194.166.228.468.076.681l-10.669 14.684-8.791-.681-9.465 7.125c-.08.056-.167.085-.26.085z"/></svg>