<?xml version="1.0" encoding="utf-8"?>
<!-- Generator: Adobe Illustrator 13.0.0, SVG Export Plug-In . SVG Version: 6.00 Build 14948)  -->
<!DOCTYPE svg PUBLIC "-//W3C//DTD SVG 1.1//EN" "http://www.w3.org/Graphics/SVG/1.1/DTD/svg11.dtd">
<svg version="1.1" id="Calque_1" xmlns="http://www.w3.org/2000/svg" xmlns:xlink="http://www.w3.org/1999/xlink" x="0px" y="0px"
	 width="103px" height="115px" viewBox="108.172 29.25 103 115" enable-background="new 108.172 29.25 103 115"
	 xml:space="preserve">
<g>
	<defs>
		<rect id="SVGID_1_" x="53.383" y="37.489" width="157.618" height="93.487"/>
	</defs>
	<clipPath id="SVGID_2_">
		<use xlink:href="#SVGID_1_"  overflow="visible"/>
	</clipPath>
	<g clip-path="url(#SVGID_2_)">
		<defs>
			<rect id="SVGID_3_" x="53.383" y="37.489" width="157.618" height="93.487"/>
		</defs>
		<clipPath id="SVGID_4_">
			<use xlink:href="#SVGID_3_"  overflow="visible"/>
		</clipPath>
		<path clip-path="url(#SVGID_4_)" fill="#4F9B46" d="M145.555,71.878h33.795c2.181,0,3.947,1.8,3.947,4.018
			c0,1.806-0.516,3.574-1.549,5.193l-14.44,22.579l6.018-0.021h10.318c0,3.174-2.521,5.621-5.641,5.621H151.31l9.144-6.837
			l15.417-24.805h-35.962C139.908,74.453,142.435,71.878,145.555,71.878"/>
		<g opacity="0.21" clip-path="url(#SVGID_4_)">
			<g>
				<defs>
					<rect id="SVGID_5_" x="141.31" y="71.878" width="38.381" height="5.749"/>
				</defs>
				<clipPath id="SVGID_6_">
					<use xlink:href="#SVGID_5_"  overflow="visible"/>
				</clipPath>
			</g>
		</g>
		<path clip-path="url(#SVGID_4_)" fill="#76BA43" d="M139.151,101.388v-29.51h13.877c5.955,0,10.874,1.709,10.874,9.683
			c0,4.302-2.121,7.408-6.368,8.234v0.104c5.539,0.778,6.992,4.35,6.992,9.479c0,9.476-8.234,9.89-11.548,9.89h-5.949
			C142.679,109.269,139.151,105.741,139.151,101.388 M146.968,87.153h5.229c1.71,0,4.095-1.14,4.095-4.763
			c0-2.745-1.867-4.762-4.507-4.762h-4.817V87.153z M146.968,103.519h4.352c1.659,0,5.386-0.048,5.386-5.28
			c0-3.314-1.242-5.335-5.18-5.335h-4.558V103.519z"/>
		<g opacity="0.3" clip-path="url(#SVGID_4_)">
			<g>
				<defs>
					<rect id="SVGID_7_" x="153.575" y="71.882" width="25.783" height="5.745"/>
				</defs>
				<clipPath id="SVGID_8_">
					<use xlink:href="#SVGID_7_"  overflow="visible"/>
				</clipPath>
				<g clip-path="url(#SVGID_8_)">
					<defs>
						<path id="SVGID_9_" d="M163.392,77.627h12.476l3.491-5.745h-25.783C158.098,72.021,161.9,73.016,163.392,77.627"/>
					</defs>
					<clipPath id="SVGID_10_">
						<use xlink:href="#SVGID_9_"  overflow="visible"/>
					</clipPath>
					
						<linearGradient id="SVGID_11_" gradientUnits="userSpaceOnUse" x1="-122.1846" y1="160.5664" x2="-121.7334" y2="160.5664" gradientTransform="matrix(87.9159 0 0 -87.9159 10881.6865 14190.998)">
						<stop  offset="0" style="stop-color:#FFFFFF"/>
						<stop  offset="1" style="stop-color:#222221"/>
					</linearGradient>
					<rect x="153.575" y="71.882" clip-path="url(#SVGID_10_)" fill="url(#SVGID_11_)" width="25.783" height="5.745"/>
				</g>
			</g>
		</g>
		<g opacity="0.3" clip-path="url(#SVGID_4_)">
			<g>
				<defs>
					<rect id="SVGID_12_" x="163.774" y="103.647" width="19.869" height="5.619"/>
				</defs>
				<clipPath id="SVGID_13_">
					<use xlink:href="#SVGID_12_"  overflow="visible"/>
				</clipPath>
				<g clip-path="url(#SVGID_13_)">
					<defs>
						<path id="SVGID_14_" d="M167.306,103.668l-3.531,5.599l14.589-0.015c0.138,0,0.269-0.009,0.404-0.031
							c0.991-0.16,4.793-1.077,4.876-5.573L167.306,103.668z"/>
					</defs>
					<clipPath id="SVGID_15_">
						<use xlink:href="#SVGID_14_"  overflow="visible"/>
					</clipPath>
					
						<linearGradient id="SVGID_16_" gradientUnits="userSpaceOnUse" x1="-123.4297" y1="160.9941" x2="-122.9782" y2="160.9941" gradientTransform="matrix(-43.2905 0 0 43.2905 -5160.019 -6863.0674)">
						<stop  offset="0" style="stop-color:#FFFFFF"/>
						<stop  offset="1" style="stop-color:#222221"/>
					</linearGradient>
					<rect x="163.774" y="103.647" clip-path="url(#SVGID_15_)" fill="url(#SVGID_16_)" width="19.869" height="5.619"/>
				</g>
			</g>
		</g>
		<path clip-path="url(#SVGID_4_)" fill="#76BA43" d="M127.12,98.202c2.125,0,3.485-0.904,3.485-2.976v-0.538h2.182v0.966
			c0,2.803-2.097,4.417-5.667,4.417c-3.456,0-5.44-1.614-5.44-4.417v-7.028c0-2.806,1.984-4.421,5.44-4.421
			c3.57,0,5.667,1.615,5.667,4.421v4.42h-8.954v2.181C123.833,97.298,124.909,98.202,127.12,98.202 M123.833,91.29h6.772v-2.241
			c0-2.066-1.36-2.975-3.485-2.975c-2.211,0-3.287,0.908-3.287,2.975V91.29z"/>
		<rect x="165.517" y="67.936" clip-path="url(#SVGID_4_)" fill="#FFFFFF" width="1.328" height="1.31"/>
		<rect x="168.064" y="74.536" clip-path="url(#SVGID_4_)" fill="#76BA43" width="1.331" height="1.31"/>
		<g opacity="0.5" clip-path="url(#SVGID_4_)">
			<g>
				<defs>
					<rect id="SVGID_17_" x="110.863" y="40.643" width="97.653" height="88.854"/>
				</defs>
				<clipPath id="SVGID_18_">
					<use xlink:href="#SVGID_17_"  overflow="visible"/>
				</clipPath>
				<path clip-path="url(#SVGID_18_)" fill="#222221" d="M195.865,129.497c13.065-17.567,14.45-41.766,3.093-60.573
					c-11.342-18.783-33.55-28.998-55.184-25.445c-12.601,2.069-24.345,8.656-32.549,18.463c-1.089,1.302,0.602-0.771,0.875-1.099
					c14.124-16.88,36.819-24.372,58.089-17.875c21.749,6.641,37.316,26.845,38.28,49.54c0.533,12.557-3.403,24.858-10.89,34.925
					C197.079,128.101,196.257,128.972,195.865,129.497"/>
			</g>
		</g>
		<rect x="139.218" y="74.536" clip-path="url(#SVGID_4_)" fill="#A1CF82" width="2.618" height="2.619"/>
		<rect x="138.984" y="81.303" clip-path="url(#SVGID_4_)" fill="#FFFFFF" width="1.521" height="1.308"/>
		<rect x="140.527" y="79.993" clip-path="url(#SVGID_4_)" fill="#FFFFFF" width="1.329" height="1.309"/>
		<rect x="142.479" y="82.61" clip-path="url(#SVGID_4_)" fill="#A1CF82" width="1.332" height="1.309"/>
		<rect x="179.714" y="103.376" clip-path="url(#SVGID_4_)" fill="#FFFFFF" width="2.26" height="2.226"/>
		<rect x="143.788" y="83.919" clip-path="url(#SVGID_4_)" fill="#4F9B46" width="1.332" height="1.311"/>
		<rect x="137.889" y="83.919" clip-path="url(#SVGID_4_)" fill="#4F9B46" width="1.329" height="1.311"/>
		<rect x="144.308" y="100.915" clip-path="url(#SVGID_4_)" fill="#A1CF82" width="1.329" height="1.309"/>
		<rect x="172.758" y="105.34" clip-path="url(#SVGID_4_)" fill="#A1CF82" width="1.329" height="1.311"/>
		<rect x="145.641" y="102.217" clip-path="url(#SVGID_4_)" fill="#4F9B46" width="1.33" height="1.31"/>
		<rect x="144.454" y="74.536" clip-path="url(#SVGID_4_)" fill="#FFFFFF" width="2.661" height="2.619"/>
		<rect x="139.146" y="83.919" clip-path="url(#SVGID_4_)" fill="#FFFFFF" width="2.71" height="2.619"/>
		<rect x="144.454" y="96.066" clip-path="url(#SVGID_4_)" fill="#FFFFFF" width="2.661" height="2.62"/>
		<rect x="172.758" y="107.959" clip-path="url(#SVGID_4_)" fill="#FFFFFF" width="1.329" height="1.527"/>
		<rect x="147.543" y="106.65" clip-path="url(#SVGID_4_)" fill="#FFFFFF" width="2.66" height="3.054"/>
		<rect x="141.835" y="74.536" clip-path="url(#SVGID_4_)" fill="#4F9B46" width="2.619" height="2.619"/>
		<rect x="147.029" y="89.83" clip-path="url(#SVGID_4_)" fill="#A1CF82" width="3.174" height="3.092"/>
		<rect x="144.411" y="87.211" clip-path="url(#SVGID_4_)" fill="#4F9B46" width="2.618" height="2.619"/>
		<rect x="174.087" y="106.65" clip-path="url(#SVGID_4_)" fill="#4F9B46" width="2.619" height="2.618"/>
		<rect x="141.815" y="71.919" clip-path="url(#SVGID_4_)" fill="#A1CF82" width="2.66" height="2.617"/>
		<rect x="150.203" y="106.65" clip-path="url(#SVGID_4_)" fill="#A1CF82" width="2.619" height="2.618"/>
		<rect x="152.822" y="104.03" clip-path="url(#SVGID_4_)" fill="#A1CF82" width="2.661" height="2.62"/>
		<rect x="137.085" y="85.229" clip-path="url(#SVGID_4_)" fill="#76BA43" width="0.803" height="0.79"/>
		<rect x="179.714" y="101.325" clip-path="url(#SVGID_4_)" fill="#76BA43" width="2.242" height="2.243"/>
		<rect x="178.583" y="104.489" clip-path="url(#SVGID_4_)" fill="#A1CF82" width="1.131" height="1.112"/>
		<rect x="178.117" y="99.756" clip-path="url(#SVGID_4_)" fill="#4F9B46" width="1.597" height="1.571"/>
		<rect x="177.451" y="103.526" clip-path="url(#SVGID_4_)" fill="#FFFFFF" width="0.704" height="0.693"/>
		<rect x="139.218" y="85.229" clip-path="url(#SVGID_4_)" fill="#76BA43" width="0.802" height="0.79"/>
		<g opacity="0.6" clip-path="url(#SVGID_4_)">
			<g>
				<defs>
					<rect id="SVGID_19_" x="117.46" y="91.916" width="1.443" height="1.443"/>
				</defs>
				<clipPath id="SVGID_20_">
					<use xlink:href="#SVGID_19_"  overflow="visible"/>
				</clipPath>
			</g>
		</g>
	</g>
</g>
<g>
	<g>
		<g>
			<g>
				<g>
					<defs>
						<rect id="SVGID_21_" x="153.629" y="71.507" width="26.243" height="5.849"/>
					</defs>
					<clipPath id="SVGID_22_">
						<use xlink:href="#SVGID_21_"  overflow="visible"/>
					</clipPath>
					<g opacity="0.3" clip-path="url(#SVGID_22_)" enable-background="new    ">
						<g>
							<g>
								<defs>
									<path id="SVGID_23_" d="M163.62,77.355h12.698l3.554-5.851h-26.243C158.23,71.648,162.104,72.662,163.62,77.355"/>
								</defs>
								<clipPath id="SVGID_24_">
									<use xlink:href="#SVGID_23_"  overflow="visible"/>
								</clipPath>
							</g>
						</g>
					</g>
					<g clip-path="url(#SVGID_22_)">
						<g>
							<g>
								<g>
									<defs>
										<rect id="SVGID_25_" x="164.01" y="103.838" width="20.225" height="5.721"/>
									</defs>
									<clipPath id="SVGID_26_">
										<use xlink:href="#SVGID_25_"  overflow="visible"/>
									</clipPath>
									<g opacity="0.3" clip-path="url(#SVGID_26_)" enable-background="new    ">
										<g>
											<g>
												<defs>
													<path id="SVGID_27_" d="M167.605,103.859l-3.598,5.697l14.85-0.014c0.14-0.001,0.272-0.011,0.412-0.032
														c1.008-0.166,4.877-1.097,4.963-5.675L167.605,103.859z"/>
												</defs>
												<clipPath id="SVGID_28_">
													<use xlink:href="#SVGID_27_"  overflow="visible"/>
												</clipPath>
												
													<linearGradient id="SVGID_29_" gradientUnits="userSpaceOnUse" x1="-1182.8354" y1="177.7852" x2="-1182.3771" y2="177.7852" gradientTransform="matrix(-43.2905 0 0 43.2905 -51021.6445 -7589.7241)">
													<stop  offset="0" style="stop-color:#FFFFFF"/>
													<stop  offset="1" style="stop-color:#222221"/>
												</linearGradient>
												<rect x="164.01" y="103.838" clip-path="url(#SVGID_28_)" fill="url(#SVGID_29_)" width="20.225" height="5.721"/>
											</g>
										</g>
									</g>
									<rect x="165.781" y="67.492" clip-path="url(#SVGID_26_)" fill="#FFFFFF" width="1.354" height="1.332"/>
									<path clip-path="url(#SVGID_26_)" fill="#76BA43" d="M126.703,98.298c2.163,0,3.548-0.923,3.548-3.028v-0.547h2.22v0.979
										c0,2.854-2.134,4.498-5.768,4.498c-3.52,0-5.537-1.644-5.537-4.498V88.55c0-2.854,2.02-4.498,5.537-4.498
										c3.634,0,5.768,1.644,5.768,4.498v4.5h-9.113v2.22C123.357,97.375,124.454,98.298,126.703,98.298 M123.357,91.261h6.894
										v-2.278c0-2.104-1.385-3.026-3.548-3.026c-2.249,0-3.346,0.924-3.346,3.026V91.261z"/>
									<rect x="168.377" y="74.211" clip-path="url(#SVGID_26_)" fill="#76BA43" width="1.354" height="1.332"/>
									<g opacity="0.5" clip-path="url(#SVGID_26_)">
										<g>
											<g>
												<g>
													<defs>
														<rect id="SVGID_30_" x="110.156" y="39.713" width="99.393" height="90.438"/>
													</defs>
													<clipPath id="SVGID_31_">
														<use xlink:href="#SVGID_30_"  overflow="visible"/>
													</clipPath>
												</g>
											</g>
										</g>
									</g>
									<rect x="139.016" y="74.211" clip-path="url(#SVGID_26_)" fill="#A1CF82" width="2.666" height="2.664"/>
									<rect x="138.779" y="81.096" clip-path="url(#SVGID_26_)" fill="#FFFFFF" width="1.547" height="1.332"/>
									<rect x="140.35" y="79.764" clip-path="url(#SVGID_26_)" fill="#FFFFFF" width="1.354" height="1.331"/>
									<rect x="142.336" y="82.428" clip-path="url(#SVGID_26_)" fill="#A1CF82" width="1.354" height="1.334"/>
									<rect x="180.232" y="103.563" clip-path="url(#SVGID_26_)" fill="#FFFFFF" width="2.301" height="2.268"/>
									<rect x="143.669" y="83.762" clip-path="url(#SVGID_26_)" fill="#4F9B46" width="1.354" height="1.332"/>
									<rect x="137.662" y="83.762" clip-path="url(#SVGID_26_)" fill="#4F9B46" width="1.354" height="1.332"/>
									<rect x="144.195" y="101.059" clip-path="url(#SVGID_26_)" fill="#A1CF82" width="1.354" height="1.332"/>
									<rect x="173.152" y="105.563" clip-path="url(#SVGID_26_)" fill="#A1CF82" width="1.354" height="1.334"/>
									<rect x="145.553" y="102.383" clip-path="url(#SVGID_26_)" fill="#4F9B46" width="1.354" height="1.333"/>
									<rect x="144.346" y="74.211" clip-path="url(#SVGID_26_)" fill="#FFFFFF" width="2.707" height="2.664"/>
									<rect x="138.945" y="83.762" clip-path="url(#SVGID_26_)" fill="#FFFFFF" width="2.757" height="2.664"/>
									<rect x="144.346" y="96.124" clip-path="url(#SVGID_26_)" fill="#FFFFFF" width="2.707" height="2.665"/>
									<rect x="173.152" y="108.229" clip-path="url(#SVGID_26_)" fill="#FFFFFF" width="1.354" height="1.556"/>
									<rect x="147.488" y="106.896" clip-path="url(#SVGID_26_)" fill="#FFFFFF" width="2.709" height="3.106"/>
									<rect x="141.682" y="74.211" clip-path="url(#SVGID_26_)" fill="#4F9B46" width="2.664" height="2.664"/>
									<rect x="146.969" y="89.775" clip-path="url(#SVGID_26_)" fill="#A1CF82" width="3.229" height="3.146"/>
									<rect x="144.303" y="87.109" clip-path="url(#SVGID_26_)" fill="#4F9B46" width="2.666" height="2.666"/>
									<rect x="174.507" y="106.896" clip-path="url(#SVGID_26_)" fill="#4F9B46" width="2.665" height="2.664"/>
									<rect x="141.659" y="71.545" clip-path="url(#SVGID_26_)" fill="#A1CF82" width="2.708" height="2.666"/>
									<rect x="150.197" y="106.896" clip-path="url(#SVGID_26_)" fill="#A1CF82" width="2.664" height="2.664"/>
									<rect x="152.861" y="104.23" clip-path="url(#SVGID_26_)" fill="#A1CF82" width="2.709" height="2.664"/>
									<rect x="136.846" y="85.094" clip-path="url(#SVGID_26_)" fill="#76BA43" width="0.816" height="0.805"/>
									<rect x="180.232" y="101.475" clip-path="url(#SVGID_26_)" fill="#76BA43" width="2.283" height="2.283"/>
									<rect x="179.081" y="104.695" clip-path="url(#SVGID_26_)" fill="#A1CF82" width="1.151" height="1.133"/>
									<rect x="178.605" y="99.879" clip-path="url(#SVGID_26_)" fill="#4F9B46" width="1.627" height="1.6"/>
									<rect x="177.932" y="103.716" clip-path="url(#SVGID_26_)" fill="#FFFFFF" width="0.717" height="0.704"/>
									<rect x="139.016" y="85.094" clip-path="url(#SVGID_26_)" fill="#76BA43" width="0.817" height="0.805"/>
								</g>
							</g>
						</g>
					</g>
				</g>
			</g>
		</g>
	</g>
</g>
</svg>
