<!DOCTYPE svg PUBLIC "-//W3C//DTD SVG 1.1//EN" "http://www.w3.org/Graphics/SVG/1.1/DTD/svg11.dtd" [
	<!ENTITY ns_flows "http://ns.adobe.com/Flows/1.0/">
]><svg xmlns="http://www.w3.org/2000/svg" xmlns:xlink="http://www.w3.org/1999/xlink" width="103" height="115" viewBox="108.172 29.25 103 115" overflow="visible" enable-background="new 108.172 29.25 103 115"><defs><path id="a" d="M99.777 24.152h126.5v126.5h-126.5z"/></defs><clipPath id="b"><use xlink:href="#a" overflow="visible"/></clipPath><path clip-path="url(#b)" fill="#605046" d="M163.001 63.297c-7.518 0-14.533 2.132-20.483 5.82.47 1.485.726 3.066.726 4.707 0 8.603-6.971 15.573-15.573 15.573-.478 0-.948-.024-1.414-.066-1.418 4.038-2.191 8.379-2.191 12.901 0 21.503 17.432 38.936 38.937 38.936 21.501 0 38.934-17.433 38.934-38.936-.002-21.503-17.435-38.935-38.936-38.935"/><path clip-path="url(#b)" fill="#fff" d="M182.25 106.962l16.068-5.652c-.037-1.451-.164-2.88-.373-4.283l-18.383 6.414c-1.086-.947-2.281-1.691-3.596-2.229-1.395-.568-2.766-.955-4.107-1.164v-.154c.93-.309 1.922-.723 2.984-1.24 1.057-.517 2.041-1.213 2.943-2.093.904-.878 1.668-1.989 2.287-3.333.621-1.344.932-2.997.932-4.962 0-3.102-.697-5.491-2.094-7.17-1.393-1.679-3.076-2.908-5.037-3.683-1.965-.774-4.006-1.227-6.125-1.356-2.119-.129-3.928-.194-5.428-.194h-19.07l-.679 1.598c1.033 0 2.657.019 3.511.147.85.129 1.561.4 2.131.812.568.415 1.008 1.048 1.318 1.9.309.853.465 2.002.465 3.449v9.817l-22.313 7.678c-.009.321-.014.644-.014.967 0 1.163.058 2.312.168 3.446l22.159-7.599v29.412h13.488c1.963 0 4.119-.127 6.473-.389 2.352-.258 4.533-.853 6.551-1.782 2.014-.931 3.707-2.311 5.076-4.146 1.369-1.834 2.055-4.354 2.055-7.56 0-2.375-.361-4.379-1.084-6.007l-.306-.644m-25.354-21.563c0-1.447.051-2.598.154-3.451.104-.852.35-1.511.736-1.976.389-.465.932-.763 1.629-.894.699-.128 1.666-.193 2.906-.193 1.551 0 3.023.156 4.42.466 1.395.311 2.609.84 3.643 1.591 1.033.749 1.846 1.757 2.441 3.021.594 1.27.891 2.884.891 4.846 0 2.48-.477 4.394-1.432 5.736-.957 1.346-2.121 2.327-3.488 2.947-1.371.62-2.818.982-4.342 1.085-1.525.104-2.857.155-3.992.155h-3.566v-13.333zm18.334 33.411c-.75 1.396-1.732 2.506-2.945 3.332-1.215.827-2.586 1.423-4.111 1.784-1.523.362-3.088.542-4.688.542-1.604 0-2.855-.063-3.76-.193-.906-.129-1.564-.426-1.977-.892-.414-.466-.66-1.125-.736-1.977-.078-.854-.117-2.003-.117-3.45v-16.202h3.566c1.652 0 3.41.091 5.27.271 1.861.182 3.58.673 5.158 1.474 1.572.802 2.879 1.989 3.914 3.566 1.031 1.576 1.551 3.759 1.551 6.549 0 2.07-.377 3.802-1.125 5.196"/><path clip-path="url(#b)" fill="#83B719" d="M175.779 109.208c-.242-.771-.543-1.464-.934-2.062-.377-.571-.803-1.154-1.248-1.624l-13.871 4.842-.061.019.029-.055 12.355-21.62c.477-.834.361-1.381.18-1.692-.102-.173-.41-.573-1.096-.573-.252 0-.531.053-.836.159l-13.402 4.611v4.5l7.756-2.66.061-.02-.031.056-13.342 23.35c-.146.258-.119.587.074.816.137.165.338.259.551.259l.006-.002.01.002.238-.042 2.203-.772v-.004l21.358-7.488zm-46.737-62.384l-5.646-13.965h-2.381v17.468h2.281v-11.632l4.682 11.632h2.129l4.682-11.632v11.632h2.282v-17.468h-2.382zm16.641-13.966l-5.96 17.469h2.425l1.918-5.601h5.576l1.893 5.601h2.426l-5.959-17.469h-2.319zm3.172 9.561h-4.025l2.023-5.915 2.002 5.915zm7.758-9.561h2.281v17.469h-2.281zm12.545 7.594h-2.371c-1.797-.013-2.619-1.369-2.625-2.624-.004-1.265.816-2.638 2.625-2.663h5.404v-2.281h-5.455c-3.297 0-4.828 2.485-4.855 4.797-.029 2.465 1.645 5 4.906 5.078h2.369c1.799.025 2.621 1.378 2.627 2.624.004 1.257-.816 2.625-2.625 2.663h-6.414v2.281h6.418c3.361-.066 4.898-2.596 4.902-4.917.004-2.331-1.527-4.878-4.906-4.958m14.785-7.795h-1.67c-3.041.076-5.344 2.389-5.477 5.505v6.818c.131 3.097 2.381 5.369 5.48 5.523h1.674c3.063-.155 5.313-2.426 5.47-5.53v-6.819c-.158-3.11-2.461-5.422-5.477-5.497m-1.662 2.281h1.656c1.786.07 3.104 1.399 3.202 3.224v6.803c-.096 1.838-1.385 3.137-3.196 3.232h-1.658c-1.82-.096-3.109-1.395-3.207-3.224v-6.804c.099-1.83 1.416-3.159 3.203-3.231M202.89 32.858l-.158.025v12.827l-7.553-12.775-.07-.077h-2.06l-.156.025v17.444h2.282v-12.927l7.625 12.927h2.213v-17.469zm-75.219 49.878c-4.916 0-8.914-3.996-8.914-8.911 0-4.913 3.998-8.914 8.914-8.914 4.914 0 8.911 4.001 8.911 8.914v1.272h-15.152c.592 2.903 3.165 5.095 6.241 5.095v2.544zm-6.241-10.184h12.479c-.591-2.904-3.163-5.095-6.238-5.095-3.076.001-5.649 2.191-6.241 5.095m6.239 17.3c-8.837 0-16.026-7.19-16.026-16.027 0-.251.202-.454.453-.454s.454.203.454.454c0 8.337 6.782 15.119 15.119 15.119s15.12-6.782 15.12-15.119c0-8.338-6.783-15.121-15.12-15.121-.25 0-.454-.203-.454-.453 0-.251.204-.454.454-.454 8.838 0 16.027 7.19 16.027 16.028.001 8.837-7.189 16.027-16.027 16.027"/></svg>