<!DOCTYPE svg PUBLIC "-//W3C//DTD SVG 1.1//EN" "http://www.w3.org/Graphics/SVG/1.1/DTD/svg11.dtd" [
	<!ENTITY ns_flows "http://ns.adobe.com/Flows/1.0/">
]><svg xmlns="http://www.w3.org/2000/svg" xmlns:xlink="http://www.w3.org/1999/xlink" width="45" height="40" viewBox="135.006 18.5 45 40" overflow="visible" enable-background="new 135.006 18.5 45 40"><defs><path id="a" d="M187.662 61.5h-56.1v-56.099h56.1"/></defs><clipPath id="b"><use xlink:href="#a" overflow="visible"/></clipPath><path clip-path="url(#b)" fill="#776961" d="M159.601 22.762c-3.331 0-6.444.944-9.083 2.579.21.66.32 1.361.32 2.089 0 3.813-3.089 6.905-6.904 6.905-.211 0-.422-.012-.63-.03-.629 1.792-.972 3.716-.972 5.722 0 9.535 7.732 17.266 17.269 17.266s17.269-7.731 17.269-17.266c0-9.538-7.733-17.265-17.269-17.265"/><path clip-path="url(#b)" fill="#fff" d="M168.136 42.124l7.13-2.505c-.02-.644-.076-1.275-.171-1.9l-8.148 2.843c-.479-.419-1.016-.749-1.596-.986-.619-.251-1.227-.423-1.821-.516v-.07c.411-.138.852-.319 1.326-.549.466-.23.901-.539 1.303-.93s.739-.882 1.016-1.477c.274-.597.414-1.329.414-2.202 0-1.375-.312-2.435-.933-3.18-.617-.744-1.361-1.29-2.232-1.631-.872-.343-1.777-.543-2.715-.602-.939-.058-1.742-.087-2.408-.087h-8.459l-.297.709c.458 0 1.175.007 1.555.064.374.058.692.177.942.36.252.186.45.466.587.845.138.375.208.886.208 1.528v4.354l-9.897 3.404-.005.43c0 .517.024 1.024.073 1.526l9.829-3.368v13.043h5.98c.868 0 1.825-.056 2.871-.172 1.042-.114 2.007-.378 2.905-.792.891-.412 1.643-1.023 2.252-1.838.606-.813.908-1.93.908-3.353 0-1.052-.159-1.942-.48-2.662l-.137-.286m-11.242-9.562c0-.643.02-1.153.068-1.53.047-.38.157-.672.328-.877s.411-.338.72-.396c.311-.058.739-.087 1.29-.087.688 0 1.341.07 1.958.208.619.138 1.157.373 1.615.708.463.332.822.778 1.087 1.337.262.564.395 1.281.395 2.149 0 1.101-.211 1.95-.637 2.545-.426.597-.942 1.031-1.547 1.305-.609.276-1.248.437-1.927.482-.675.045-1.263.068-1.77.068h-1.581v-5.912zm8.131 14.816c-.333.619-.769 1.112-1.307 1.479-.541.364-1.148.63-1.821.789-.676.161-1.373.243-2.08.243-.713 0-1.266-.029-1.67-.089-.398-.056-.692-.187-.873-.394-.184-.207-.297-.5-.328-.876-.034-.378-.052-.889-.052-1.531v-7.184h1.581c.734 0 1.513.042 2.335.12.827.081 1.589.3 2.289.654.697.355 1.28.883 1.737 1.582.458.698.688 1.667.688 2.903.001.918-.166 1.686-.499 2.304"/><path clip-path="url(#b)" fill="#83B81A" d="M165.27 43.121c-.107-.34-.245-.649-.414-.914-.171-.254-.357-.512-.556-.72l-6.153 2.146-.024.008.013-.025 5.478-9.587c.213-.369.162-.612.078-.749-.041-.078-.181-.256-.484-.256-.112 0-.235.026-.367.072l-5.945 2.043v1.997l3.437-1.179.032-.009-.018.025-5.916 10.354c-.063.115-.049.261.034.361.059.075.149.115.242.115h.01l.108-.017.972-.343v-.001l9.473-3.321zM143.934 31.38c-2.182 0-3.953-1.772-3.953-3.95 0-2.179 1.771-3.955 3.953-3.955 2.181 0 3.95 1.776 3.95 3.955v.565h-6.717c.26 1.285 1.402 2.256 2.767 2.256v1.129zm-2.767-4.514h5.532c-.265-1.29-1.402-2.261-2.766-2.261-1.363 0-2.506.971-2.766 2.261M143.934 34.537c-3.922 0-7.109-3.189-7.109-7.106 0-.112.091-.201.201-.201.112 0 .2.089.2.201 0 3.696 3.012 6.704 6.708 6.704 3.693 0 6.704-3.007 6.704-6.704 0-3.699-3.011-6.708-6.704-6.708-.11 0-.201-.089-.201-.201 0-.112.091-.2.201-.2 3.921 0 7.105 3.188 7.105 7.108.001 3.917-3.184 7.107-7.105 7.107"/></svg>