<!DOCTYPE svg PUBLIC "-//W3C//DTD SVG 1.1//EN" "http://www.w3.org/Graphics/SVG/1.1/DTD/svg11.dtd" [
	<!ENTITY ns_flows "http://ns.adobe.com/Flows/1.0/">
]><svg xmlns="http://www.w3.org/2000/svg" width="108" height="47" viewBox="103.268 416.938 108 47" overflow="visible" enable-background="new 103.268 416.938 108 47"><text transform="translate(116.047 457.791)" fill="#615046" font-family="'Ubuntu-Light'" font-size="12.067">Filtre</text><path stroke="#615046" stroke-width=".5" fill="none" d="M117.037 426.216h25.375v2.534h-25.375z"/><path fill="#fff" stroke="#615046" stroke-width=".5" d="M127.186 423.675l2.539-2.536 2.537 2.536v17.763h-5.076zM119.574 423.675l2.54-2.536 2.535 2.536v17.763h-5.075zM134.801 423.675l2.536-2.536 2.539 2.536v17.763h-5.075z"/><text transform="translate(169.709 457.894)" fill="#83B81A" font-family="'Ubuntu-Light'" font-size="12.067">Filtre</text><path stroke="#8CC63F" stroke-width=".5" fill="none" d="M170.698 426.32h25.375v2.534h-25.375zM180.849 423.779l2.538-2.536 2.538 2.536v17.763h-5.076zM173.235 423.779l2.541-2.536 2.536 2.536v17.763h-5.077zM188.463 423.779l2.536-2.536 2.539 2.536v17.763h-5.075z"/></svg>