<!DOCTYPE svg PUBLIC "-//W3C//DTD SVG 1.1//EN" "http://www.w3.org/Graphics/SVG/1.1/DTD/svg11.dtd" [
	<!ENTITY ns_flows "http://ns.adobe.com/Flows/1.0/">
]><svg xmlns="http://www.w3.org/2000/svg" width="34" height="13" viewBox="162.835 182.225 34 13" overflow="visible" enable-background="new 162.835 182.225 34 13"><path fill="#615046" d="M174.668 187.995h8.599v1.356h-8.599v-1.356zM179.815 184.814l1.61-.733 3.306 4.593-3.306 4.593-1.442-.677 2.706-3.859-2.874-3.917z"/><path fill="#EC1C24" d="M191.628 184.081v8.599h-1.356v-8.599h1.356zM194.809 189.228l.733 1.61-4.593 3.306-4.593-3.306.677-1.442 3.859 2.706 3.917-2.874z"/><path fill="#83B81A" d="M167.771 194.144v-8.599h1.356v8.599h-1.356zM164.59 188.997l-.733-1.61 4.593-3.306 4.593 3.306-.677 1.442-3.859-2.706-3.917 2.874z"/></svg>