<!DOCTYPE svg PUBLIC "-//W3C//DTD SVG 1.1//EN" "http://www.w3.org/Graphics/SVG/1.1/DTD/svg11.dtd" [
	<!ENTITY ns_flows "http://ns.adobe.com/Flows/1.0/">
]><svg xmlns="http://www.w3.org/2000/svg" width="108" height="47" viewBox="270.592 312.689 108 47" overflow="visible" enable-background="new 270.592 312.689 108 47"><path fill="#615046" d="M284.024 333.999c-.156 0-.312-.078-.401-.221-.139-.222-.071-.518.15-.655l7.68-4.809 3.832 3.835 3.947-7.894 8.236 4.116 6.883-4.601c.221-.143.516-.085.664.134.141.22.084.515-.132.659l-7.349 4.905-7.879-3.938-4.111 8.224-4.229-4.229-7.039 4.402c-.077.049-.164.072-.252.072zM284.024 337.163c-.148 0-.298-.071-.388-.203-.152-.217-.096-.512.118-.666l10.318-7.172 9.163.652 11.009-14.005c.163-.21.46-.243.666-.08.208.161.244.458.08.667l-11.32 14.4-9.328-.667-10.045 6.99c-.082.055-.176.084-.273.084z"/><text transform="translate(276.183 353.457)" fill="#615046" font-family="'Ubuntu-Light'" font-size="12.332">Marchés</text><path fill="#83B81A" d="M338.433 333.999c-.156 0-.312-.078-.4-.221-.14-.222-.071-.518.149-.655l7.681-4.809 3.831 3.835 3.947-7.894 8.236 4.116 6.884-4.601c.221-.143.515-.085.663.134.142.22.085.515-.131.659l-7.349 4.905-7.879-3.938-4.112 8.224-4.228-4.229-7.04 4.402c-.078.049-.164.072-.252.072zM338.433 337.163c-.147 0-.297-.071-.388-.203-.151-.217-.096-.512.119-.666l10.317-7.172 9.163.652 11.01-14.005c.162-.21.46-.243.665-.08.209.161.244.458.081.667l-11.32 14.4-9.329-.667-10.045 6.99c-.083.055-.176.084-.273.084z"/><text transform="translate(330.591 353.457)" fill="#83B81A" font-family="'Ubuntu-Light'" font-size="12.332">Marchés</text></svg>