<!DOCTYPE svg PUBLIC "-//W3C//DTD SVG 1.1//EN" "http://www.w3.org/Graphics/SVG/1.1/DTD/svg11.dtd" [
	<!ENTITY ns_flows "http://ns.adobe.com/Flows/1.0/">
]><svg xmlns="http://www.w3.org/2000/svg" width="108" height="47" viewBox="99.735 474.869 108 47" overflow="visible" enable-background="new 99.735 474.869 108 47"><path fill="#83B81A" d="M189.706 492.903l6.734-2.369c-.015-.608-.068-1.209-.154-1.797l-7.705 2.688c-.454-.396-.955-.709-1.507-.931-.584-.24-1.159-.401-1.72-.487v-.065c.386-.129.805-.304 1.247-.521.445-.216.856-.508 1.234-.875.381-.371.698-.835.96-1.399.261-.563.391-1.257.391-2.078 0-1.301-.294-2.301-.878-3.003-.582-.71-1.288-1.224-2.111-1.548-.825-.325-1.68-.514-2.565-.565-.891-.055-1.647-.084-2.274-.084h-7.993l-.287.671c.435 0 1.114.006 1.474.061.356.055.652.168.893.342.24.173.423.439.549.795.135.358.199.84.199 1.445v4.116l-9.351 3.214-.009.408c0 .489.025.972.072 1.444l9.287-3.182v12.322h5.65c.823 0 1.729-.051 2.718-.16.981-.107 1.896-.356 2.743-.748.845-.392 1.551-.967 2.127-1.739.574-.768.861-1.822.861-3.166 0-.994-.152-1.837-.456-2.518l-.129-.271m-10.624-9.038c0-.606.024-1.089.065-1.447.041-.353.147-.63.307-.827.163-.194.391-.321.685-.375.293-.053.697-.08 1.219-.08.648 0 1.264.064 1.852.193.583.131 1.092.354 1.527.668.431.314.773.733 1.023 1.269.247.529.372 1.206.372 2.031 0 1.039-.2 1.839-.602 2.402-.397.563-.889.977-1.462 1.234-.574.261-1.181.412-1.819.453-.64.047-1.194.068-1.673.068h-1.494v-5.589zm7.683 14.002c-.315.587-.725 1.051-1.235 1.397-.51.347-1.083.596-1.721.748-.639.151-1.295.229-1.968.229-.671 0-1.196-.027-1.575-.084-.376-.052-.654-.179-.827-.373-.175-.192-.279-.472-.307-.827-.034-.36-.051-.84-.051-1.447v-6.79h1.494c.692 0 1.43.039 2.206.114.782.074 1.502.282 2.164.618.661.337 1.207.833 1.641 1.494.434.659.648 1.576.648 2.745.001.869-.153 1.592-.469 2.176"/><path fill="#83B81A" stroke="#fff" stroke-width=".25" d="M186.995 493.845c-.1-.324-.228-.616-.394-.865-.156-.239-.332-.484-.524-.682l-5.809 2.031-.027.007.014-.024 5.179-9.059c.2-.352.149-.578.076-.711-.042-.073-.173-.238-.459-.238-.105 0-.224.022-.352.065l-5.617 1.932v1.887l3.25-1.116.025-.007-.014.024-5.591 9.785c-.062.107-.051.245.034.343.057.065.138.106.229.106h.007l.099-.014.921-.328 8.953-3.136z"/><text transform="translate(164.223 517.288)" fill="#83B81A" font-family="'Ubuntu-Light'" font-size="12.111">Offres</text><g fill="#615046"><path d="M135.079 492.903l6.736-2.369c-.016-.608-.068-1.209-.154-1.797l-7.706 2.688c-.453-.396-.954-.709-1.507-.931-.584-.24-1.158-.401-1.721-.487v-.065c.387-.129.806-.304 1.249-.521.444-.216.856-.508 1.234-.875.38-.371.698-.835.96-1.399.261-.563.39-1.257.39-2.078 0-1.301-.294-2.301-.879-3.003-.58-.71-1.287-1.224-2.11-1.548-.825-.325-1.679-.514-2.565-.565-.89-.055-1.647-.084-2.274-.084h-7.994l-.286.671c.436 0 1.114.006 1.474.061.356.055.653.168.894.342.239.173.422.439.55.795.133.358.197.84.197 1.445v4.116l-9.349 3.214-.01.408c0 .489.025.972.07 1.444l9.288-3.182v12.322h5.651c.823 0 1.729-.051 2.716-.16.982-.107 1.898-.356 2.744-.748.845-.392 1.552-.967 2.128-1.739.572-.768.86-1.822.86-3.166 0-.994-.151-1.837-.455-2.518l-.131-.271m-10.622-9.038c0-.606.022-1.089.064-1.447.041-.353.147-.63.308-.827.163-.194.391-.321.684-.375.293-.053.697-.08 1.219-.08.648 0 1.265.064 1.852.193.584.131 1.092.354 1.526.668.432.314.775.733 1.024 1.269.247.529.372 1.206.372 2.031 0 1.039-.2 1.839-.602 2.402-.397.563-.889.977-1.462 1.234-.573.261-1.181.412-1.819.453-.64.047-1.194.068-1.673.068h-1.493v-5.589zm7.682 14.002c-.315.587-.724 1.051-1.235 1.397-.51.347-1.084.596-1.721.748-.639.151-1.295.229-1.967.229-.671 0-1.197-.027-1.576-.084-.377-.052-.655-.179-.826-.373-.176-.192-.28-.472-.307-.827-.035-.36-.051-.84-.051-1.447v-6.79h1.493c.692 0 1.43.039 2.207.114.781.074 1.501.282 2.163.618.661.337 1.208.833 1.641 1.494.434.659.649 1.576.649 2.745.001.869-.154 1.592-.47 2.176"/><path d="M132.368 493.845c-.1-.324-.228-.616-.392-.865-.157-.239-.333-.484-.524-.682l-5.81 2.031-.026.007.013-.024 5.18-9.059c.199-.352.148-.578.076-.711-.042-.073-.174-.238-.46-.238-.105 0-.224.022-.352.065l-5.616 1.932v1.887l3.25-1.116.024-.007-.013.024-5.591 9.785c-.063.107-.052.245.033.343.056.065.139.106.229.106h.007l.099-.014.922-.328 8.951-3.136z"/></g><text transform="translate(109.557 517.288)" fill="#615046" font-family="'Ubuntu-Light'" font-size="12.111">Offres</text></svg>