<?xml version="1.0" encoding="utf-8"?>
<!-- Generator: Adobe Illustrator 13.0.0, SVG Export Plug-In . SVG Version: 6.00 Build 14948)  -->
<!DOCTYPE svg PUBLIC "-//W3C//DTD SVG 1.1//EN" "http://www.w3.org/Graphics/SVG/1.1/DTD/svg11.dtd">
<svg version="1.1" id="Calque_1" xmlns="http://www.w3.org/2000/svg" xmlns:xlink="http://www.w3.org/1999/xlink" x="0px" y="0px"
	 width="108px" height="47px" viewBox="99.735 474.869 108 47" enable-background="new 99.735 474.869 108 47" xml:space="preserve"
	>
<text transform="matrix(1 0 0 1 165.3516 517.2881)" fill="#78BD43" font-family="'ArialMT'" font-size="12.111">Offres</text>
<text transform="matrix(1 0 0 1 110.2344 517.2881)" fill="#41201F" font-family="'ArialMT'" font-size="12.111">Offres</text>
<g>
	<path fill="#72A84D" d="M173.092,480.735h18.373c1.187,0,2.146,0.979,2.146,2.184c0,0.982-0.28,1.944-0.843,2.824l-7.828,12.252
		l3.244,0.001h5.616c0,1.727-1.372,3.067-3.067,3.067h-12.89l3.347-3.717l8.383-13.485h-19.552
		C170.021,482.135,171.396,480.735,173.092,480.735"/>
	<path fill="#78BD43" d="M169.61,496.779v-16.044h7.545c3.237,0,5.912,0.929,5.912,5.264c0,2.339-1.153,4.028-3.462,4.478v0.057
		c3.011,0.424,3.801,2.364,3.801,5.153c0,5.152-4.477,5.377-6.278,5.377h-3.234C171.527,501.063,169.61,499.146,169.61,496.779
		 M173.86,489.04h2.844c0.929,0,2.226-0.619,2.226-2.59c0-1.492-1.015-2.589-2.451-2.589h-2.618V489.04z M173.86,497.938h2.365
		c0.902,0,2.929-0.027,2.929-2.871c0-1.801-0.676-2.9-2.815-2.9h-2.479V497.938z"/>
	<g opacity="0.3">
		<g>
			<defs>
				<rect id="SVGID_1_" x="177.323" y="480.742" width="14.155" height="3.118"/>
			</defs>
			<clipPath id="SVGID_2_">
				<use xlink:href="#SVGID_1_"  overflow="visible"/>
			</clipPath>
			<g clip-path="url(#SVGID_2_)">
				<defs>
					<path id="SVGID_3_" d="M182.798,483.85l6.775,0.012l1.905-3.119h-14.155C179.814,480.764,181.979,481.318,182.798,483.85"/>
				</defs>
				<clipPath id="SVGID_4_">
					<use xlink:href="#SVGID_3_"  overflow="visible"/>
				</clipPath>
				
					<linearGradient id="SVGID_5_" gradientUnits="userSpaceOnUse" x1="-142.415" y1="120.1445" x2="-142.1226" y2="120.1445" gradientTransform="matrix(74.4775 0 0 -74.4775 10776.415 9430.335)">
					<stop  offset="0" style="stop-color:#FFFFFF"/>
					<stop  offset="1" style="stop-color:#231F20"/>
				</linearGradient>
				<rect x="177.323" y="480.742" clip-path="url(#SVGID_4_)" fill="url(#SVGID_5_)" width="14.155" height="3.119"/>
			</g>
		</g>
	</g>
	<g opacity="0.3">
		<g>
			<defs>
				<rect id="SVGID_6_" x="183.033" y="497.972" width="10.816" height="3.086"/>
			</defs>
			<clipPath id="SVGID_7_">
				<use xlink:href="#SVGID_6_"  overflow="visible"/>
			</clipPath>
			<g clip-path="url(#SVGID_7_)">
				<defs>
					<path id="SVGID_8_" d="M184.94,497.995l-1.907,3.063l7.941-0.008c0.074,0,0.146-0.006,0.22-0.018
						c0.54-0.089,2.61-0.591,2.655-3.061L184.94,497.995z"/>
				</defs>
				<clipPath id="SVGID_9_">
					<use xlink:href="#SVGID_8_"  overflow="visible"/>
				</clipPath>
				<defs>
					<filter id="Adobe_OpacityMaskFilter" filterUnits="userSpaceOnUse" x="183.033" y="497.972" width="10.816" height="3.086">
						<feColorMatrix  type="matrix" values="1 0 0 0 0  0 1 0 0 0  0 0 1 0 0  0 0 0 1 0"/>
					</filter>
				</defs>
				<mask maskUnits="userSpaceOnUse" x="183.033" y="497.972" width="10.816" height="3.086" id="SVGID_10_">
					<g filter="url(#Adobe_OpacityMaskFilter)">
						
							<linearGradient id="SVGID_11_" gradientUnits="userSpaceOnUse" x1="-147.1758" y1="139.8965" x2="-146.8831" y2="139.8965" gradientTransform="matrix(-36.3665 0 0 36.3665 -5158.5864 -4588.0156)">
							<stop  offset="0" style="stop-color:#000000"/>
							<stop  offset="1" style="stop-color:#FFFFFF"/>
						</linearGradient>
						<rect x="183.032" y="497.972" clip-path="url(#SVGID_9_)" fill="url(#SVGID_11_)" width="10.817" height="3.085"/>
					</g>
				</mask>
				
					<linearGradient id="SVGID_12_" gradientUnits="userSpaceOnUse" x1="-147.1748" y1="139.8965" x2="-146.8822" y2="139.8965" gradientTransform="matrix(-36.3665 0 0 36.3665 -5158.5854 -4588.0156)">
					<stop  offset="0" style="stop-color:#FFFFFF"/>
					<stop  offset="1" style="stop-color:#231F20"/>
				</linearGradient>
				
					<rect x="183.033" y="497.972" clip-path="url(#SVGID_9_)" mask="url(#SVGID_10_)" fill="url(#SVGID_12_)" width="10.816" height="3.086"/>
			</g>
		</g>
	</g>
</g>
<g>
	<g opacity="0.92">
		<g>
			<defs>
				<rect id="SVGID_13_" x="114.986" y="480.694" width="23.66" height="20.225"/>
			</defs>
			<clipPath id="SVGID_14_">
				<use xlink:href="#SVGID_13_"  overflow="visible"/>
			</clipPath>
			<path clip-path="url(#SVGID_14_)" fill="#41201F" d="M118.041,480.694h18.279c1.18,0,2.135,0.972,2.135,2.173
				c0,0.977-0.277,1.933-0.838,2.809l-7.787,12.19l3.24-0.058h5.576c0,1.717-1.367,3.11-3.055,3.11h-12.824l3.33-3.697l8.34-13.419
				h-19.451C114.986,482.087,116.354,480.694,118.041,480.694"/>
		</g>
	</g>
	<g opacity="0.56">
		<g>
			<defs>
				<rect id="SVGID_15_" x="127.916" y="497.809" width="10.73" height="3.109"/>
			</defs>
			<clipPath id="SVGID_16_">
				<use xlink:href="#SVGID_15_"  overflow="visible"/>
			</clipPath>
			<g clip-path="url(#SVGID_16_)">
				<defs>
					<path id="SVGID_17_" d="M135.443,497.809l-5.615,0.057l-1.912,2.995l7.621,0.058c1.293,0,2.4-0.786,2.869-1.907
						c0.24-0.57-0.182-1.202-0.801-1.202H135.443z"/>
				</defs>
				<clipPath id="SVGID_18_">
					<use xlink:href="#SVGID_17_"  overflow="visible"/>
				</clipPath>
				
					<linearGradient id="SVGID_19_" gradientUnits="userSpaceOnUse" x1="-109.2656" y1="157.416" x2="-109.0855" y2="157.416" gradientTransform="matrix(57.6613 0 0 -57.6613 6428.4585 9576.1836)">
					<stop  offset="0" style="stop-color:#FFFFFF"/>
					<stop  offset="0.9997" style="stop-color:#231F20"/>
					<stop  offset="1" style="stop-color:#231F20"/>
				</linearGradient>
				<rect x="127.916" y="497.809" clip-path="url(#SVGID_18_)" fill="url(#SVGID_19_)" width="10.73" height="3.109"/>
			</g>
			<g clip-path="url(#SVGID_16_)">
				<defs>
					<path id="SVGID_20_" d="M135.443,497.809l-5.615,0.057l-1.912,2.995l7.621,0.058c1.293,0,2.4-0.786,2.869-1.907
						c0.24-0.57-0.182-1.202-0.801-1.202H135.443z"/>
				</defs>
				<clipPath id="SVGID_21_">
					<use xlink:href="#SVGID_20_"  overflow="visible"/>
				</clipPath>
				
					<linearGradient id="SVGID_22_" gradientUnits="userSpaceOnUse" x1="-110.9087" y1="172.4629" x2="-110.7285" y2="172.4629" gradientTransform="matrix(-58.5949 0 0 58.5949 -6360.1709 -9606.0898)">
					<stop  offset="0" style="stop-color:#FFFFFF"/>
					<stop  offset="0.9997" style="stop-color:#231F20"/>
					<stop  offset="1" style="stop-color:#231F20"/>
				</linearGradient>
				<rect x="127.916" y="497.809" clip-path="url(#SVGID_21_)" fill="url(#SVGID_22_)" width="10.73" height="3.109"/>
			</g>
		</g>
	</g>
	<path fill="#41201F" d="M114.576,496.656v-15.964h7.506c3.223,0,5.883,0.926,5.883,5.239c0,2.326-1.146,4.006-3.443,4.454v0.057
		c2.996,0.421,3.781,2.352,3.781,5.126c0,5.128-4.455,5.35-6.246,5.35h-3.219C116.484,500.918,114.576,499.011,114.576,496.656
		 M118.805,488.955h2.83c0.924,0,2.213-0.616,2.213-2.574c0-1.485-1.008-2.578-2.438-2.578h-2.605V488.955z M118.805,497.809h2.354
		c0.898,0,2.914-0.027,2.914-2.856c0-1.792-0.672-2.886-2.803-2.886h-2.465V497.809z"/>
	<g opacity="0.4">
		<g>
			<defs>
				<rect id="SVGID_23_" x="122.635" y="480.695" width="13.768" height="3.107"/>
			</defs>
			<clipPath id="SVGID_24_">
				<use xlink:href="#SVGID_23_"  overflow="visible"/>
			</clipPath>
			<g clip-path="url(#SVGID_24_)">
				<defs>
					<path id="SVGID_25_" d="M127.684,483.803h6.752l1.967-3.107l-13.768,0.003C125.109,480.774,127.033,481.577,127.684,483.803"/>
				</defs>
				<clipPath id="SVGID_26_">
					<use xlink:href="#SVGID_25_"  overflow="visible"/>
				</clipPath>
				
					<linearGradient id="SVGID_27_" gradientUnits="userSpaceOnUse" x1="-109.3965" y1="160.6211" x2="-109.2168" y2="160.6211" gradientTransform="matrix(117.659 0 0 -117.659 12986.7061 19380.8164)">
					<stop  offset="0" style="stop-color:#FFFFFF"/>
					<stop  offset="0.9997" style="stop-color:#231F20"/>
					<stop  offset="1" style="stop-color:#231F20"/>
				</linearGradient>
				<rect x="122.635" y="480.695" clip-path="url(#SVGID_26_)" fill="url(#SVGID_27_)" width="13.768" height="3.107"/>
			</g>
		</g>
	</g>
</g>
</svg>
