<!DOCTYPE svg PUBLIC "-//W3C//DTD SVG 1.1//EN" "http://www.w3.org/Graphics/SVG/1.1/DTD/svg11.dtd" [
	<!ENTITY ns_flows "http://ns.adobe.com/Flows/1.0/">
]><svg xmlns="http://www.w3.org/2000/svg" width="46" height="42" viewBox="263.9 202.058 46 42" overflow="visible" enable-background="new 263.9 202.058 46 42"><path fill="#615046" d="M263.409 201.411h47.234v43.73h-47.234z"/><path fill="#fff" d="M282.5 214.745v-3.387c0-.186.053-4.525 4.523-4.525 4.363 0 4.521 4.061 4.525 4.525v3.654h1.754v-3.654c0-2.176-1.312-6.281-6.279-6.281-4.963 0-6.279 4.105-6.279 6.281v3.387h-.92v10.801h14.404v-10.801h-11.728z"/><circle fill="#fff" cx="287.026" cy="219.821" r="2.702"/><path fill="#615046" d="M287.027 223.019c-1.764 0-3.201-1.434-3.201-3.197 0-1.766 1.438-3.201 3.201-3.201 1.766 0 3.199 1.436 3.199 3.201.001 1.763-1.433 3.197-3.199 3.197zm0-5.399c-1.215 0-2.203.986-2.203 2.201 0 1.213.988 2.197 2.203 2.197 1.213 0 2.199-.984 2.199-2.197.001-1.215-.986-2.201-2.199-2.201z"/><text transform="translate(267.153 238.852)" fill="#fff" font-family="'MyriadPro-Regular'" font-size="12.159">Bloquer</text></svg>