<svg xmlns="http://www.w3.org/2000/svg" xmlns:xlink="http://www.w3.org/1999/xlink" width="40" height="30" viewBox="0 0 40 30"><g><defs><path id="a" d="M-4.325-.102h46.421v31.914h-46.421z"/></defs><clipPath id="b"><use xlink:href="#a" overflow="visible"/></clipPath><path clip-path="url(#b)" fill="#605046" d="M36.863 14.951c0-3.856-3.126-6.981-6.981-6.981-3.856 0-6.982 3.125-6.982 6.981s3.126 6.982 6.982 6.982c3.855.001 6.981-3.125 6.981-6.982"/><path clip-path="url(#b)" fill="#83B719" d="M30.188 13.306l.01-.003-.006.01-2.392 4.186c-.026.048-.021.105.013.147l.1.045.042-.007 4.262-1.494-.002.005 3.999-1.404c-.007-.26-.026-.517-.066-.77l-3.594 1.254-3.248 1.135-.012.003.006-.01 2.215-3.876c.086-.15.065-.248.032-.304-.019-.03-.072-.103-.197-.103l-.149.029-3.252 1.119-4.396 1.514-.005.17c0 .21.011.417.03.621l4.416-1.513 2.194-.754z"/><path clip-path="url(#b)" fill="#605046" d="M2.949 12.128h-.533c-.972.025-1.709.764-1.751 1.76v2.18c.041.991.761 1.716 1.752 1.766h.535c.98-.05 1.699-.774 1.75-1.768v-2.181c-.051-.993-.787-1.732-1.753-1.757m-.569.751h.518c.559.021.972.437 1.002 1.008v2.128c-.03.574-.433.98-1 1.01l-.518.001c-.569-.03-.973-.437-1.002-1.009v-2.128c.03-.573.441-.989 1-1.01"/><path clip-path="url(#b)" fill="#605046" d="M7.692 13.902h-.282c-.304 0-.606.099-.861.28v-.28h-.738v5.585h.738v-1.995c.252.185.554.285.861.285h.282c.63 0 1.163-.528 1.163-1.154v-1.557c0-.633-.521-1.154-1.163-1.164m-1.143 1.122c0-.248.202-.448.449-.448h.669c.248 0 .45.201.45.448v1.639c0 .239-.205.44-.45.44h-.918c-.111 0-.193-.082-.2-.198v-1.881zM10.533 14.187v-1.995h-.73v4.422c0 .642.519 1.163 1.155 1.163h.776v-.674h-.752c-.244 0-.442-.197-.449-.448v-1.637c.007-.246.205-.443.449-.451h.752v-.665h-.332c-.318 0-.623.101-.869.285M13.16 12.192h-.384c-.099.012-.163.074-.174.167v.388c.01.1.073.164.179.175h.385c.101-.011.163-.075.173-.179v-.385c-.01-.091-.074-.153-.179-.166"/><path clip-path="url(#b)" fill="#605046" d="M12.602 13.895h.737v3.883h-.737zM18.717 13.902h-.283c-.408 0-.808.18-1.083.484-.219-.301-.573-.484-.941-.484h-.282c-.303 0-.606.099-.861.28v-.28h-.737v3.875h.737v-2.753c0-.243.202-.448.442-.448h.677c.245 0 .443.198.45.448v2.753h.738v-2.753c0-.248.202-.448.449-.448h.669c.249 0 .449.201.449.448v2.753h.738v-2.713c-.008-.642-.518-1.152-1.162-1.162"/><path clip-path="url(#b)" fill="#605046" d="M21.069 13.895h.739v3.883h-.739zM21.629 12.192h-.386c-.097.012-.164.074-.174.167v.388c.01.1.074.164.18.175h.384c.102-.011.165-.075.176-.179v-.372l-.002-.013c-.01-.091-.074-.153-.178-.166"/></g></svg>