<?xml version="1.0" encoding="utf-8"?>
<!-- Generator: Adobe Illustrator 13.0.0, SVG Export Plug-In . SVG Version: 6.00 Build 14948)  -->
<!DOCTYPE svg PUBLIC "-//W3C//DTD SVG 1.1//EN" "http://www.w3.org/Graphics/SVG/1.1/DTD/svg11.dtd">
<svg version="1.1" id="Calque_1" xmlns="http://www.w3.org/2000/svg" xmlns:xlink="http://www.w3.org/1999/xlink" x="0px" y="0px"
	 width="241.089px" height="76.336px" viewBox="0 0 241.089 76.336" enable-background="new 0 0 241.089 76.336"
	 xml:space="preserve">
<path fill="#3C2525" d="M69.457,9.89C55.724-0.323,36.809-1.405,22.107,7.473C7.425,16.339-0.56,33.699,2.216,50.609
	c1.618,9.85,6.766,19.029,14.433,25.443c1.017,0.852-0.604-0.471-0.86-0.684C2.595,64.327-3.261,46.587,1.816,29.96
	c5.192-17,20.985-29.169,38.725-29.922c9.817-0.417,19.432,2.661,27.301,8.512C68.365,8.94,69.045,9.584,69.457,9.89"/>
<path fill="#262727" d="M46.279,27.478c8.055,0,14.622,6.443,14.622,14.746c0,8.508-6.567,15.159-14.622,15.159
	c-8.055,0-14.622-6.65-14.622-15.159C31.657,33.921,38.224,27.478,46.279,27.478z M46.279,55.689
	c7.063,0,12.763-5.865,12.763-13.465c0-7.395-5.701-13.053-12.763-13.053c-7.063,0-12.764,5.658-12.764,13.053
	C33.515,49.824,39.215,55.689,46.279,55.689z"/>
<path fill="#262727" d="M76.052,27.973h9.5c5.04,0,8.799,3.181,8.799,8.427c0,5.245-3.759,8.508-8.799,8.508h-7.724v11.979h-1.776
	V27.973z M85.47,43.256c4.213,0,7.021-2.519,7.021-6.856s-2.809-6.774-7.021-6.774h-7.642v13.63H85.47z"/>
<path fill="#262727" d="M115.411,29.626h-10.781v-1.653h23.338v1.653h-10.781v27.261h-1.776V29.626z"/>
<path fill="#262727" d="M141.015,27.973h1.776v28.914h-1.776V27.973z"/>
<path fill="#262727" d="M161.458,27.973h1.734l8.426,18.175c0.662,1.404,1.404,3.262,1.404,3.262h0.082c0,0,0.744-1.857,1.406-3.262
	l8.426-18.175h1.734l2.313,28.914h-1.775l-1.775-22.057c-0.125-1.404-0.125-3.841-0.125-3.841h-0.082c0,0-0.826,2.437-1.486,3.841
	l-7.766,16.481h-1.818l-7.725-16.481c-0.619-1.362-1.527-3.924-1.527-3.924h-0.082c0,0,0,2.52-0.125,3.924l-1.775,22.057h-1.777
	L161.458,27.973z"/>
<path fill="#262727" d="M203.334,27.973h1.776v28.914h-1.776V27.973z"/>
<g>
	<path fill="#262727" d="M224.009,27.287h13.65c1.707,0,3.088,1.407,3.088,3.142c0,1.412-0.403,2.795-1.213,4.061l-11.258,17.622
		l4.666,0.001h8.076c0,2.483-1.973,4.411-4.412,4.411l-17.09,0.104l3.367-5.448l12.055-19.396h-15.346
		C219.593,29.301,221.569,27.287,224.009,27.287"/>
	
		<linearGradient id="SVGID_1_" gradientUnits="userSpaceOnUse" x1="-297.8413" y1="344.5996" x2="-297.2014" y2="344.5996" gradientTransform="matrix(43.5359 0 0 43.5359 13176.6309 -14972.8877)">
		<stop  offset="0" style="stop-color:#FFFFFF"/>
		<stop  offset="1" style="stop-color:#000000"/>
	</linearGradient>
	<path opacity="0.3" fill="url(#SVGID_1_)" d="M219.593,31.782h15.346l2.74-4.484L224.607,27.3
		C222.889,27.09,219.837,28.037,219.593,31.782z"/>
	<defs>
		<filter id="Adobe_OpacityMaskFilter" filterUnits="userSpaceOnUse" x="225.532" y="52.077" width="15.557" height="4.438">
			<feFlood  style="flood-color:white;flood-opacity:1" result="back"/>
			<feBlend  in="SourceGraphic" in2="back" mode="normal"/>
		</filter>
	</defs>
	<mask maskUnits="userSpaceOnUse" x="225.532" y="52.077" width="15.557" height="4.438" id="SVGID_2_">
		<g filter="url(#Adobe_OpacityMaskFilter)">
			<defs>
				<filter id="Adobe_OpacityMaskFilter_1_" filterUnits="userSpaceOnUse" x="225.532" y="52.077" width="15.557" height="4.438">
					<feFlood  style="flood-color:white;flood-opacity:1" result="back"/>
					<feBlend  in="SourceGraphic" in2="back" mode="normal"/>
				</filter>
			</defs>
			<mask maskUnits="userSpaceOnUse" x="225.532" y="52.077" width="15.557" height="4.438" id="SVGID_2_">
				<g filter="url(#Adobe_OpacityMaskFilter_1_)">
				</g>
			</mask>
			<linearGradient id="SVGID_3_" gradientUnits="userSpaceOnUse" x1="240.8398" y1="54.2959" x2="225.5321" y2="54.2959">
				<stop  offset="0" style="stop-color:#000000"/>
				<stop  offset="1" style="stop-color:#FFFFFF"/>
			</linearGradient>
			<path mask="url(#SVGID_2_)" fill="url(#SVGID_3_)" d="M228.276,52.111l-2.744,4.403l11.422-0.011
				c0.106,0,0.211-0.008,0.316-0.025c0.776-0.128,3.753-0.85,3.818-4.401L228.276,52.111z"/>
		</g>
	</mask>
	<linearGradient id="SVGID_4_" gradientUnits="userSpaceOnUse" x1="240.8398" y1="54.2959" x2="225.5321" y2="54.2959">
		<stop  offset="0" style="stop-color:#FFFFFF"/>
		<stop  offset="1" style="stop-color:#000000"/>
	</linearGradient>
	<path opacity="0.3" fill="url(#SVGID_4_)" d="M228.276,52.111l-2.744,4.403l11.422-0.011c0.106,0,0.211-0.008,0.316-0.025
		c0.776-0.128,3.753-0.85,3.818-4.401L228.276,52.111z"/>
</g>
</svg>
