<svg xmlns="http://www.w3.org/2000/svg" xmlns:xlink="http://www.w3.org/1999/xlink" width="40" height="30" viewBox="0 0 40 30"><g><defs><path id="a" d="M-5.01-1.419h47.771v32.843h-47.771z"/></defs><clipPath id="b"><use xlink:href="#a" overflow="visible"/></clipPath><path clip-path="url(#b)" fill="#605046" d="M37.067 14.971c0-3.828-3.101-6.928-6.927-6.928-3.827 0-6.929 3.101-6.929 6.928 0 3.826 3.102 6.927 6.929 6.927 3.827 0 6.927-3.101 6.927-6.927"/><path clip-path="url(#b)" fill="#83B719" d="M30.444 13.336l.01-.003-.005.01-2.374 4.155c-.026.047-.021.104.012.146l.098.045.044-.006 4.229-1.484-.002.006 3.967-1.394c-.007-.26-.027-.514-.066-.764l-3.564 1.244-3.226 1.127-.01.004.005-.012 2.199-3.846c.085-.148.063-.247.031-.301-.02-.031-.074-.104-.194-.104l-.149.029-3.227 1.111-4.366 1.501-.004.171c0 .207.013.412.032.614l4.381-1.501 2.179-.748z"/><path clip-path="url(#b)" fill="#605046" d="M3.004 14.604h-.762c-.579-.005-.844-.441-.845-.845-.002-.407.263-.848.844-.856h1.738v-.735h-1.754c-1.061 0-1.554.8-1.562 1.544-.01.794.529 1.608 1.579 1.635h.762c.578.008.846.444.846.846.003.404-.263.844-.845.854h-2.065v.738h2.064c1.084-.023 1.578-.838 1.578-1.584.003-.753-.489-1.573-1.578-1.597M7.275 13.88h-.722c-.637 0-1.163.525-1.172 1.172v1.559c.009.648.522 1.16 1.172 1.172h.723c.168 0 .336-.037.499-.111l.03-.014v-.555h-1.479c-.112 0-.195-.082-.202-.201v-.445h1.151c.635 0 1.171-.537 1.171-1.171v-.234c0-.636-.536-1.172-1.171-1.172m.427 1.13v.317c0 .25-.202.454-.452.454h-1.126v-.771c0-.249.204-.453.453-.453h.673c.25.001.452.205.452.453M11.132 13.88h-.724c-.646.009-1.17.534-1.17 1.172v1.565c0 .643.524 1.166 1.17 1.166h.724c.23 0 .45-.066.637-.189l.023-.014v-.467h-1.364c-.246-.008-.447-.211-.447-.453v-1.65c0-.241.201-.445.445-.453h1.366v-.467l-.023-.015c-.184-.12-.398-.186-.637-.195"/><path clip-path="url(#b)" fill="#605046" d="M14.986 16.648c-.006.256-.206.455-.453.455h-.681c-.241 0-.444-.207-.444-.453v-2.77h-.744v2.731c0 .637.521 1.16 1.163 1.172h.291c.309 0 .613-.102.868-.289v.289h.742v-3.903h-.742v2.768zM18.754 13.88h-.218c-.305 0-.609.099-.866.281v-.281h-.743v3.903h.743v-2.78c0-.242.208-.446.453-.446h1.106v-.6l-.037-.01c-.154-.045-.296-.067-.438-.067"/><path clip-path="url(#b)" fill="#605046" d="M20.101 13.873h.744v3.911h-.744zM20.844 12.326c-.01-.095-.074-.155-.181-.167h-.387c-.099.012-.163.073-.175.167l-.001.01.001.382c.01.099.074.164.181.175h.388c.101-.012.165-.076.175-.181v-.372l-.001-.014zM7.246 12.182h.369l-.607 1.146h-.367zM7.246 12.182h.369l-.607 1.146h-.367z"/></g></svg>