<!DOCTYPE svg PUBLIC "-//W3C//DTD SVG 1.1//EN" "http://www.w3.org/Graphics/SVG/1.1/DTD/svg11.dtd" [
	<!ENTITY ns_flows "http://ns.adobe.com/Flows/1.0/">
]><svg xmlns="http://www.w3.org/2000/svg" width="32" height="27" viewBox="57.498 152.461 32 27" overflow="visible" enable-background="new 57.498 152.461 32 27"><path fill="#fff" stroke="#fff" d="M65.311 158.083h11.13v15.559h-11.13z"/><path fill="none" d="M57.498 152.461h32.398v31.417h-32.398zM58.406 148.826h36.992v35.872h-36.992zM66.615 157.575h20.574v18.373h-20.574zM66.615 157.575h20.574v18.373h-20.574z"/><path fill="#615046" stroke="#fff" stroke-width=".25" d="M80.754 158.951l.805 1.18-11.135 8.524-.806-1.178zM82.453 161.452l.801 1.191-11.065 8.61-.8-1.19zM81.616 160.203l.788 1.167-10.925 8.461-.79-1.17z"/><path fill="#fff" d="M69.682 167.518l-1.809 4.058 4.305-.312"/><path fill="#fff" d="M69.618 167.504s.294-.228.719.399c.423.624.13.849.13.849s.293-.225.719.398c.425.629.13.854.13.854s.295-.225.717.398c.427.625.132.852.132.852l-2.547-3.75z"/><path fill="#615046" d="M67.875 171.561l.982-2.275 1.379 2.129z"/><path stroke="#fff" stroke-width=".5" fill="none" d="M69.715 169.372l11.844-9.169M70.562 170.622l11.842-9.17"/></svg>