<!DOCTYPE svg PUBLIC "-//W3C//DTD SVG 1.1//EN" "http://www.w3.org/Graphics/SVG/1.1/DTD/svg11.dtd" [
	<!ENTITY ns_flows "http://ns.adobe.com/Flows/1.0/">
]><svg xmlns="http://www.w3.org/2000/svg" width="54" height="47" viewBox="215.549 474.152 54 47" overflow="visible" enable-background="new 215.549 474.152 54 47"><path fill="#615046" d="M245.958 492.463c-1.091 0-1.281 2.746-2.182 2.731-.902-.021-3.378-1.783-4.915-3.282-1.496-1.532-3.26-4.011-3.274-4.913-.022-.899 2.732-1.09 2.732-2.182s-3.278-6.01-4.371-6.01-3.826 3.276-3.826 5.459 2.619 6.356 6.006 9.831l.551.545c3.477 3.392 7.647 6.009 9.829 6.009 2.186 0 5.463-2.729 5.463-3.823 0-1.09-4.917-4.365-6.013-4.365zm-3.728-9.735c-.298-.05-.582.152-.623.448-.056.298.146.581.444.631 2.52.42 4.5 2.4 4.919 4.919.045.271.275.459.54.459l.089-.013c.3-.044.5-.326.449-.623-.502-2.981-2.837-5.32-5.818-5.821zm-.172-2.503c4.455.463 8.028 4.039 8.488 8.497.051.422.402.733.818.733l.086-.005c.451-.045.778-.449.733-.896-.545-5.223-4.736-9.413-9.959-9.961-.45-.05-.854.282-.898.732-.046.452.281.853.732.9z"/><text transform="translate(224.867 517.028)" fill="#615046" font-family="'Ubuntu-Light'" font-size="12.48">Appel</text></svg>