<!DOCTYPE svg PUBLIC "-//W3C//DTD SVG 1.1//EN" "http://www.w3.org/Graphics/SVG/1.1/DTD/svg11.dtd" [
	<!ENTITY ns_flows "http://ns.adobe.com/Flows/1.0/">
]><svg xmlns="http://www.w3.org/2000/svg" width="62" height="38" viewBox="144.733 287.636 62 38" overflow="visible" enable-background="new 144.733 287.636 62 38"><text transform="translate(150.914 321.361)" fill="#615046" font-family="'Ubuntu-Light'" font-size="10.445">Filtre</text><path stroke="#615046" stroke-width=".5" fill="none" d="M151.771 294.031h21.964v2.193h-21.964z"/><path fill="#fff" stroke="#615046" stroke-width=".5" d="M160.557 291.832l2.197-2.196 2.196 2.196v15.375h-4.393zM153.968 291.832l2.198-2.196 2.194 2.196v15.375h-4.392zM167.147 291.832l2.196-2.196 2.198 2.196v15.375h-4.394z"/><text transform="translate(178.914 321.361)" fill="#83B81A" font-family="'Ubuntu-Light'" font-size="10.445">Filtre</text><path fill="#fff" stroke="#8CC63F" d="M179.771 294.031h21.964v2.193h-21.964z"/><path fill="#fff" stroke="#8CC63F" stroke-width=".5" d="M188.557 291.832l2.197-2.196 2.196 2.196v15.375h-4.393zM181.968 291.832l2.198-2.196 2.194 2.196v15.375h-4.392zM195.147 291.832l2.196-2.196 2.198 2.196v15.375h-4.394z"/></svg>